<svg width="46" height="46" viewBox="0 0 46 46" fill="none" xmlns="http://www.w3.org/2000/svg">
<g clip-path="url(#clip0_328_243)">
<path d="M41.5325 11.6949H41.1433C40.9154 9.74249 39.3442 8.19453 37.3807 8.0051C37.1553 5.90029 35.3698 4.25537 33.2064 4.25537H6.41394C2.82836 4.25537 -0.0888672 7.1726 -0.0888672 10.7578V29.5435C-0.0888672 31.7221 1.57822 33.5177 3.70311 33.723C3.92613 35.8053 5.67667 37.4364 7.80884 37.4707C7.81438 37.8402 7.87221 38.1969 7.97714 38.5335C8.45469 40.0665 9.88767 41.1827 11.5759 41.1827H41.5325C43.6107 41.1827 45.3013 39.492 45.3013 37.4142V15.4637C45.3013 13.3856 43.6107 11.6949 41.5325 11.6949ZM43.5282 15.4637V29.9795L39.6718 27.0665C38.6181 26.2707 37.193 26.2582 36.1257 27.0356L31.2474 30.5901L21.9444 20.9989C20.8363 19.8562 19.0331 19.7859 17.8394 20.8393L9.58051 28.1258V15.4637C9.58051 14.3632 10.4757 13.468 11.5759 13.468H41.5325C42.6331 13.468 43.5282 14.3632 43.5282 15.4637ZM43.5282 37.4139C43.5282 38.5144 42.6331 39.4096 41.5329 39.4096H11.5759C10.6821 39.4096 9.92334 38.8185 9.67054 38.0068C9.61202 37.8194 9.58051 37.6203 9.58051 37.4142V30.49L19.0127 22.1687C19.4951 21.7428 20.2237 21.7712 20.6718 22.2332L24.8703 26.5619C24.8703 26.5622 24.8703 26.5622 24.8707 26.5622L33.2272 35.1778C33.4011 35.3572 33.632 35.4473 33.8637 35.4473C34.086 35.4473 34.3087 35.3641 34.4808 35.1972C34.832 34.8561 34.8406 34.2951 34.4999 33.9436L32.4941 31.8755L37.1698 28.469C37.6013 28.1545 38.1772 28.1594 38.6032 28.4811L43.5282 32.2014V37.4139ZM5.45192 33.2732V12.3415C5.45192 12.2525 5.45643 12.1642 5.46543 12.0776C5.59772 10.7765 6.69999 9.75807 8.03532 9.75807H18.8793C19.369 9.75807 19.7659 9.36121 19.7659 8.87154C19.7659 8.38188 19.369 7.98502 18.8793 7.98502H8.03532C5.63304 7.98502 3.67887 9.93918 3.67887 12.3415V31.9316C2.54613 31.7276 1.68419 30.7345 1.68419 29.5435V10.7578C1.68419 8.1502 3.80596 6.02842 6.41394 6.02842H33.2064C34.3832 6.02842 35.367 6.87097 35.5862 7.98502H25.9715C25.4819 7.98502 25.085 8.38188 25.085 8.87154C25.085 9.36121 25.4819 9.75807 25.9715 9.75807H36.5184H36.5195H36.9742C38.144 9.75807 39.1233 10.5909 39.3501 11.6949H11.5759C9.49809 11.6949 7.80745 13.3856 7.80745 15.4637V30.0893V30.09V35.6976C6.50225 35.6606 5.45192 34.5874 5.45192 33.2732Z" fill="#ED5C60"/>
<path d="M34.3546 17.0759C32.2623 17.0759 30.5605 18.778 30.5605 20.8696C30.5605 22.9616 32.2626 24.6637 34.3546 24.6637C36.4463 24.6637 38.1483 22.9616 38.1483 20.8696C38.1483 18.778 36.4463 17.0759 34.3546 17.0759ZM34.3546 22.8906C33.2402 22.8906 32.3336 21.984 32.3336 20.87C32.3336 19.7556 33.2402 18.849 34.3546 18.849C35.4686 18.849 36.3753 19.7556 36.3753 20.87C36.3753 21.984 35.4686 22.8906 34.3546 22.8906Z" fill="#ED5C60"/>
<path d="M21.6073 9.21075C21.6294 9.26408 21.6568 9.31533 21.6887 9.36347C21.7209 9.41195 21.7579 9.45731 21.7988 9.49818C21.8397 9.53869 21.8847 9.57609 21.9335 9.60899C21.9813 9.64085 22.0336 9.66821 22.0869 9.69037C22.1399 9.71254 22.196 9.7295 22.2528 9.74093C22.3092 9.75236 22.3678 9.7579 22.4256 9.7579C22.4841 9.7579 22.5416 9.75236 22.5994 9.74093C22.6559 9.7295 22.7109 9.71254 22.765 9.69037C22.8183 9.66821 22.8695 9.64085 22.9177 9.60899C22.9662 9.57609 23.0115 9.53869 23.0524 9.49818C23.0939 9.45731 23.1303 9.41195 23.1632 9.36347C23.1951 9.31533 23.2224 9.26408 23.2446 9.21075C23.2668 9.15672 23.2837 9.10097 23.2951 9.04522C23.3066 8.98738 23.3121 8.92886 23.3121 8.87137C23.3121 8.81354 23.3066 8.75502 23.2951 8.69857C23.2837 8.64178 23.2668 8.58568 23.2446 8.53269C23.2224 8.47867 23.1951 8.42707 23.1632 8.37928C23.1303 8.33045 23.0939 8.28544 23.0524 8.24457C23.0115 8.20371 22.9662 8.16665 22.9177 8.13445C22.8695 8.10259 22.8183 8.07523 22.765 8.05307C22.7109 8.03091 22.6559 8.01394 22.5994 8.00251C22.4848 7.97931 22.3671 7.97931 22.2528 8.00251C22.196 8.01394 22.1399 8.03091 22.0869 8.05307C22.0336 8.07523 21.9813 8.10259 21.9335 8.13445C21.8847 8.16665 21.8397 8.20371 21.7988 8.24457C21.7579 8.28544 21.7209 8.33045 21.6887 8.37928C21.6568 8.42707 21.6294 8.47867 21.6073 8.53269C21.5851 8.58568 21.5682 8.64178 21.5567 8.69857C21.5453 8.75502 21.5391 8.81354 21.5391 8.87137C21.5391 8.92886 21.5453 8.98738 21.5567 9.04522C21.5682 9.10097 21.5851 9.15672 21.6073 9.21075Z" fill="#ED5C60"/>
</g>
<defs>
<clipPath id="clip0_328_243">
<rect width="45.3901" height="45.3901" fill="white"/>
</clipPath>
</defs>
</svg>
