<svg width="46" height="46" viewBox="0 0 46 46" fill="none" xmlns="http://www.w3.org/2000/svg">
<path d="M33.5602 11.4894C33.4273 11.3573 33.2476 11.2832 33.0602 11.2832C32.8728 11.2832 32.6931 11.3573 32.5602 11.4894L22.9999 20.7589C22.8645 20.8906 22.7869 21.0707 22.7843 21.2596C22.7816 21.4484 22.8541 21.6306 22.9857 21.766C23.1174 21.9015 23.2975 21.979 23.4863 21.9817C23.6752 21.9844 23.8574 21.9119 23.9928 21.7802L33.546 12.4894C33.68 12.3584 33.7567 12.1797 33.7594 11.9924C33.762 11.805 33.6904 11.6242 33.5602 11.4894Z" fill="#ED5C60"/>
<path d="M38.7518 18.7233H37.6383C37.4485 18.724 37.2633 18.6647 37.1092 18.5539C36.9551 18.4431 36.8399 18.2864 36.7802 18.1063C36.4543 17.1371 36.0313 16.2033 35.5177 15.3191L39.8865 10.9999C40.5227 10.3629 40.8801 9.49947 40.8801 8.59919C40.8801 7.69892 40.5227 6.83546 39.8865 6.19848L38.766 5.11338C38.1301 4.4839 37.2707 4.13198 36.3759 4.13465C35.9311 4.13417 35.4906 4.22236 35.0802 4.39406C34.6698 4.56576 34.2978 4.81753 33.9858 5.13465L29.5887 9.47508C28.7775 9.0334 27.9305 8.66092 27.0568 8.36161C26.8773 8.30155 26.7216 8.18611 26.612 8.03189C26.5024 7.87767 26.4445 7.69264 26.4468 7.50345V6.38288C26.4449 5.76527 26.1983 5.1736 25.7609 4.73755C25.3235 4.3015 24.7311 4.05664 24.1135 4.05664H20.1348C19.5172 4.05664 18.9247 4.3015 18.4874 4.73755C18.05 5.1736 17.8033 5.76527 17.8014 6.38288V7.49636C17.8021 7.68617 17.7428 7.87134 17.632 8.02545C17.5212 8.17956 17.3646 8.29473 17.1844 8.35451C16.5126 8.58352 15.8563 8.85596 15.2199 9.17012C15.0509 9.25243 14.8605 9.28027 14.6751 9.24978C14.4896 9.21929 14.3181 9.13198 14.1844 8.9999L13.4043 8.21267C12.9646 7.77697 12.3707 7.53253 11.7518 7.53253C11.1328 7.53253 10.5389 7.77697 10.0993 8.21267L7.30498 11.007C7.08754 11.2238 6.91502 11.4813 6.7973 11.7649C6.67958 12.0484 6.61899 12.3524 6.61899 12.6595C6.61899 12.9665 6.67958 13.2705 6.7973 13.5541C6.91502 13.8377 7.08754 14.0952 7.30498 14.312L8.08512 15.0992C8.21988 15.2327 8.30946 15.405 8.34126 15.592C8.37306 15.779 8.34549 15.9712 8.26242 16.1417C7.94635 16.7764 7.67615 17.433 7.45391 18.1063C7.39189 18.2864 7.27518 18.4427 7.12006 18.5533C6.96495 18.6639 6.77918 18.7233 6.58867 18.7233H5.4681C4.84926 18.7233 4.25577 18.9691 3.81818 19.4067C3.3806 19.8443 3.13477 20.4378 3.13477 21.0566V25.007C3.13477 25.6258 3.3806 26.2193 3.81818 26.6569C4.25577 27.0945 4.84926 27.3403 5.4681 27.3403H6.58157C6.77138 27.3396 6.95656 27.3989 7.11067 27.5097C7.26478 27.6205 7.37995 27.7772 7.43973 27.9573C7.66874 28.6292 7.94118 29.2854 8.25533 29.9219C8.3384 30.0924 8.36597 30.2847 8.33417 30.4716C8.30236 30.6586 8.21279 30.831 8.07803 30.9644L7.29789 31.7517C7.07464 31.9653 6.89678 32.2217 6.77492 32.5057C6.65306 32.7896 6.58971 33.0952 6.58867 33.4042C6.5917 33.7128 6.65595 34.0178 6.77769 34.3015C6.89943 34.5851 7.07624 34.8418 7.29789 35.0566L10.0922 37.851C10.5318 38.2867 11.1257 38.5311 11.7447 38.5311C12.3636 38.5311 12.9576 38.2867 13.3972 37.851L14.1844 37.0637C14.3165 36.9293 14.4872 36.8393 14.6727 36.8063C14.8583 36.7733 15.0495 36.7988 15.2199 36.8793C15.8551 37.1942 16.5116 37.4643 17.1844 37.6878C17.3645 37.7499 17.5208 37.8666 17.6314 38.0217C17.742 38.1768 17.8015 38.3626 17.8014 38.5531V39.6666C17.8014 40.2854 18.0473 40.8789 18.4849 41.3165C18.9224 41.7541 19.5159 41.9999 20.1348 41.9999H24.1135C24.4205 42.0008 24.7247 41.9412 25.0086 41.8243C25.2925 41.7075 25.5506 41.5358 25.768 41.319C25.9854 41.1022 26.1579 40.8447 26.2756 40.5611C26.3933 40.2776 26.4539 39.9736 26.4539 39.6666V38.5602C26.4512 38.37 26.5088 38.1839 26.6184 38.0285C26.7279 37.8731 26.8839 37.7563 27.0638 37.6949C27.73 37.4692 28.3794 37.1966 29.0071 36.8793C29.1766 36.7968 29.3676 36.7696 29.5534 36.8014C29.7391 36.8332 29.9102 36.9225 30.0426 37.0566L30.8298 37.8439C31.2694 38.2796 31.8633 38.524 32.4823 38.524C33.1012 38.524 33.6951 38.2796 34.1348 37.8439L36.9291 35.0495C37.3648 34.6099 37.6092 34.016 37.6092 33.3971C37.6092 32.7781 37.3648 32.1842 36.9291 31.7446L36.1702 30.9644C36.0355 30.831 35.9459 30.6586 35.9141 30.4716C35.8823 30.2847 35.9099 30.0924 35.9929 29.9219C36.3113 29.2873 36.5838 28.6308 36.8085 27.9573C36.8683 27.7772 36.9835 27.6205 37.1376 27.5097C37.2917 27.3989 37.4769 27.3396 37.6667 27.3403H38.7802C39.399 27.3403 39.9925 27.0945 40.4301 26.6569C40.8677 26.2193 41.1135 25.6258 41.1135 25.007V21.0566C41.1135 20.7478 41.0522 20.4421 40.9332 20.1571C40.8142 19.8722 40.6398 19.6137 40.4201 19.3966C40.2004 19.1796 39.9398 19.0083 39.6534 18.8927C39.3671 18.7771 39.0606 18.7196 38.7518 18.7233ZM32.3688 19.6878C33.0763 21.8629 33.0764 24.2062 32.3693 26.3814C31.6621 28.5566 30.284 30.4518 28.4328 31.795C26.5815 33.1383 24.3523 33.8605 22.0651 33.858C19.7778 33.8555 17.5502 33.1285 15.7019 31.7812C13.8535 30.4339 12.4795 28.5357 11.7771 26.359C11.0747 24.1823 11.0799 21.8391 11.7921 19.6655C12.5043 17.492 13.8867 15.5999 15.7411 14.261C17.5954 12.922 19.8263 12.2049 22.1135 12.2127C23.4584 12.2115 24.7914 12.4641 26.0426 12.9573L17.5319 21.3971C17.4386 21.4884 17.3724 21.6038 17.3404 21.7304L15.7163 28.1985C15.6796 28.3223 15.6773 28.4538 15.7098 28.5788C15.7423 28.7037 15.8083 28.8175 15.9007 28.9077C15.9664 28.9747 16.0447 29.028 16.1312 29.0646C16.2176 29.1011 16.3104 29.1201 16.4043 29.1205C16.4608 29.1273 16.518 29.1273 16.5745 29.1205L23.1135 27.5105C23.2386 27.4839 23.3524 27.4196 23.4397 27.3261L32.0638 18.8155C32.1916 19.1005 32.3052 19.3916 32.4043 19.6878H32.3688ZM18.3901 23.2765L21.5248 26.3758L17.3617 27.4042L18.3901 23.2765ZM22.922 25.7659L19.0142 21.9006L33.0851 7.9999L36.9929 11.8652L22.922 25.7659ZM36.3972 5.55309C36.9263 5.54785 37.4361 5.75176 37.8156 6.12047L38.9078 7.20558C39.2777 7.57649 39.4854 8.07893 39.4854 8.60274C39.4854 9.12655 39.2777 9.62898 38.9078 9.9999L38.0284 10.8652L34.0922 6.9999L34.9646 6.13465C35.1474 5.95016 35.3651 5.80376 35.6049 5.70394C35.8447 5.60412 36.1019 5.55284 36.3617 5.55309H36.3972ZM39.7021 25.007C39.7021 25.2496 39.6058 25.4823 39.4342 25.6539C39.2626 25.8255 39.0299 25.9219 38.7872 25.9219H37.6383C37.1554 25.9279 36.6863 26.0841 36.2961 26.3688C35.906 26.6534 35.6141 27.0525 35.461 27.5105C35.2629 28.1185 35.0261 28.7131 34.7518 29.2907C34.5377 29.7267 34.4649 30.2186 34.5438 30.6979C34.6226 31.1772 34.849 31.62 35.1915 31.9644L35.9787 32.7517C36.0643 32.8367 36.1322 32.9378 36.1785 33.0492C36.2249 33.1606 36.2487 33.28 36.2487 33.4006C36.2487 33.5212 36.2249 33.6407 36.1785 33.752C36.1322 33.8634 36.0643 33.9645 35.9787 34.0495L33.1277 36.8793C33.0426 36.9649 32.9415 37.0328 32.8302 37.0791C32.7188 37.1255 32.5994 37.1493 32.4787 37.1493C32.3581 37.1493 32.2387 37.1255 32.1273 37.0791C32.0159 37.0328 31.9148 36.9649 31.8298 36.8793L31.0426 36.0921C30.704 35.741 30.263 35.5059 29.7828 35.4206C29.3026 35.3352 28.8076 35.404 28.3688 35.6169C27.7893 35.8924 27.1923 36.1294 26.5816 36.3261C26.1185 36.4792 25.7159 36.7752 25.4317 37.1715C25.1475 37.5679 24.9964 38.0441 25 38.5318V39.6453C25.0058 39.8875 24.916 40.1222 24.7501 40.2987C24.5842 40.4752 24.3555 40.5793 24.1135 40.5886H20.1348C19.8921 40.5886 19.6594 40.4922 19.4878 40.3206C19.3163 40.149 19.2199 39.9163 19.2199 39.6737V38.5602C19.2224 38.0728 19.0708 37.597 18.7868 37.2009C18.5028 36.8047 18.1008 36.5085 17.6383 36.3545C17.0276 36.1577 16.4306 35.9208 15.8511 35.6453C15.4158 35.428 14.9231 35.3535 14.443 35.4324C13.963 35.5114 13.5201 35.7397 13.1773 36.085L12.3901 36.8793C12.3051 36.9649 12.2039 37.0328 12.0926 37.0791C11.9812 37.1255 11.8618 37.1493 11.7411 37.1493C11.6205 37.1493 11.5011 37.1255 11.3897 37.0791C11.2783 37.0328 11.1772 36.9649 11.0922 36.8793L8.29789 34.0425C8.21155 33.9588 8.14313 33.8584 8.0968 33.7475C8.05047 33.6365 8.02719 33.5173 8.02838 33.3971C8.02745 33.2758 8.05082 33.1556 8.09711 33.0436C8.1434 32.9315 8.21167 32.8298 8.29789 32.7446L9.08512 31.9573C9.43135 31.6152 9.66037 31.1722 9.73936 30.6919C9.81835 30.2116 9.74326 29.7186 9.52484 29.2836C9.24933 28.7041 9.01241 28.1071 8.81562 27.4964C8.65974 27.0351 8.36305 26.6343 7.96734 26.3506C7.57163 26.0668 7.09686 25.9144 6.60994 25.9148H5.4681C5.22545 25.9148 4.99275 25.8184 4.82117 25.6468C4.6496 25.4753 4.55321 25.2425 4.55321 24.9999V21.0566C4.55321 20.814 4.6496 20.5813 4.82117 20.4097C4.99275 20.2381 5.22545 20.1417 5.4681 20.1417H6.58157C7.06901 20.1443 7.54477 19.9927 7.9409 19.7087C8.33702 19.4246 8.63325 19.0227 8.78725 18.5602C8.98402 17.9472 9.22093 17.3478 9.49647 16.7659C9.71431 16.3319 9.7891 15.8401 9.71011 15.361C9.63111 14.882 9.40238 14.4402 9.05675 14.0992L8.29789 13.312C8.12681 13.1393 8.03084 12.9061 8.03084 12.663C8.03084 12.42 8.12681 12.1867 8.29789 12.0141L11.0922 9.21976C11.1772 9.1342 11.2783 9.0663 11.3897 9.01997C11.5011 8.97363 11.6205 8.94978 11.7411 8.94978C11.8618 8.94978 11.9812 8.97363 12.0926 9.01997C12.2039 9.0663 12.3051 9.1342 12.3901 9.21976L13.1773 10.007C13.5206 10.3513 13.9635 10.5791 14.4433 10.658C14.9231 10.7369 15.4156 10.663 15.8511 10.4467C16.4306 10.1712 17.0276 9.93428 17.6383 9.73749C18.1002 9.58255 18.5016 9.28609 18.7854 8.89017C19.0693 8.49426 19.2213 8.01899 19.2199 7.53182V6.38288C19.2199 6.14024 19.3163 5.90753 19.4878 5.73595C19.6594 5.56438 19.8921 5.46799 20.1348 5.46799H24.1135C24.3518 5.47532 24.5781 5.57472 24.7447 5.74531C24.9113 5.9159 25.0054 6.14442 25.0071 6.38288V7.49636C25.0046 7.98379 25.1561 8.45955 25.4402 8.85568C25.7242 9.25181 26.1262 9.54803 26.5887 9.70203C27.2456 9.93057 27.8855 10.2055 28.5036 10.5247L27.1419 11.8652C25.5628 11.1484 23.8476 10.7807 22.1135 10.7871C19.5386 10.7926 17.0313 11.6123 14.9504 13.129C12.8695 14.6456 11.3216 16.7815 10.528 19.2311C9.73441 21.6807 9.73586 24.3185 10.5321 26.7672C11.3284 29.2159 12.8787 31.3501 14.9612 32.8645C17.0438 34.3788 19.5519 35.1958 22.1268 35.1984C24.7018 35.2011 27.2116 34.3894 29.2973 32.8794C31.383 31.3694 32.9377 29.2384 33.7391 26.7913C34.5404 24.3443 34.5474 21.7065 33.7589 19.2552C33.5793 18.7211 33.3637 18.1998 33.1135 17.6949L34.461 16.3616C34.8592 17.0632 35.1938 17.799 35.461 18.5602C35.6169 19.0215 35.9136 19.4222 36.3093 19.706C36.705 19.9897 37.1798 20.1421 37.6667 20.1417H38.7802C39.0228 20.1417 39.2555 20.2381 39.4271 20.4097C39.5987 20.5813 39.6951 20.814 39.6951 21.0566L39.7021 25.007Z" fill="#ED5C60"/>
</svg>
