<svg width="46" height="46" viewBox="0 0 46 46" fill="none" xmlns="http://www.w3.org/2000/svg">
<g clip-path="url(#clip0_328_191)">
<path d="M22.5174 21.7425C23.007 21.7425 23.4039 21.3455 23.4039 20.856V18.1557H25.1442C25.6338 18.1557 26.0307 17.7587 26.0307 17.2692C26.0307 16.7796 25.6338 16.3827 25.1442 16.3827H23.4039V14.7022H25.3708C25.8605 14.7022 26.2574 14.3053 26.2574 13.8157C26.2574 13.3262 25.8605 12.9292 25.3708 12.9292H22.5174C22.0278 12.9292 21.6309 13.3262 21.6309 13.8157V20.856C21.6309 21.3455 22.0278 21.7425 22.5174 21.7425Z" fill="#ED5C60"/>
<path d="M16.0865 12.9033H14.0779C13.8426 12.9033 13.6168 12.9969 13.4505 13.1636C13.2841 13.3303 13.191 13.5562 13.1914 13.7915V13.797V13.7972C13.1914 13.7972 13.1975 20.8847 13.2088 20.9411C13.2231 21.1558 13.3142 21.3588 13.4678 21.5113C13.634 21.6761 13.8584 21.7686 14.0924 21.7686H14.0958C14.1565 21.7683 15.5886 21.7628 16.1609 21.7528C18.2911 21.7156 19.8372 19.8579 19.8372 17.3359C19.8372 14.6847 18.3299 12.9033 16.0865 12.9033ZM16.1299 19.9801C15.8648 19.9847 15.3967 19.9883 14.9758 19.991C14.9731 19.1516 14.9675 15.5481 14.9661 14.6764H16.0865C17.0426 14.6764 18.0641 15.375 18.0641 17.3359C18.0641 18.6351 17.466 19.9566 16.1299 19.9801Z" fill="#ED5C60"/>
<path d="M8.87307 12.9033H6.89833C6.66269 12.9033 6.43681 12.9971 6.27041 13.164C6.1048 13.3301 6.0119 13.5552 6.0119 13.7898H6.01172V20.882C6.01172 21.3716 6.40862 21.7686 6.89824 21.7686C7.38787 21.7686 7.78477 21.3716 7.78477 20.882V18.6832C8.18308 18.6812 8.62174 18.6793 8.87298 18.6793C10.487 18.6793 11.8001 17.3838 11.8001 15.7914C11.8001 14.1989 10.4871 12.9033 8.87307 12.9033ZM8.87307 16.9062C8.62262 16.9062 8.18973 16.908 7.79372 16.9101C7.79168 16.4999 7.78867 15.1047 7.78752 14.6764H8.87315C9.49878 14.6764 10.0272 15.1869 10.0272 15.7913C10.0272 16.3956 9.49869 16.9062 8.87307 16.9062Z" fill="#ED5C60"/>
<path d="M45.2813 33.8319C45.1258 33.5477 44.8276 33.3709 44.5035 33.3709H42.3529V25.8432C42.3529 25.3537 41.956 24.9567 41.4664 24.9567H38.8262V7.71368C38.8262 7.47848 38.7327 7.25295 38.5663 7.08664L31.7376 0.261195C31.5714 0.0950601 31.3459 0.00170898 31.1109 0.00170898H7.44681C5.98032 0.00170898 4.78723 1.19479 4.78723 2.66128V9.35712H2.65957C1.19309 9.35712 0 10.5502 0 12.0167V22.655C0 24.1215 1.19309 25.3146 2.65957 25.3146H4.78723V40.9543C4.78723 42.4208 5.98032 43.6139 7.44681 43.6139H36.3218L37.1966 44.98C37.3596 45.2345 37.641 45.3884 37.9432 45.3884C38.2453 45.3884 38.5268 45.2345 38.6897 44.98L45.25 34.7354C45.4248 34.4626 45.4368 34.1162 45.2813 33.8319ZM31.9087 2.93921L35.8872 6.9158H32.7952C32.3064 6.9158 31.9087 6.51811 31.9087 6.02928V2.93921ZM7.44681 41.8409C6.95798 41.8409 6.56028 41.4432 6.56028 40.9544V25.3147H12.5815C13.0711 25.3147 13.468 24.9177 13.468 24.4281C13.468 23.9386 13.0711 23.5416 12.5815 23.5416H2.65957C2.17074 23.5416 1.77305 23.1439 1.77305 22.6551V12.0168C1.77305 11.5279 2.17074 11.1303 2.65957 11.1303H29.6099C30.0988 11.1303 30.4965 11.5279 30.4965 12.0168V22.6551C30.4965 23.1439 30.0988 23.5416 29.6099 23.5416H20.5602C20.0706 23.5416 19.6737 23.9386 19.6737 24.4281C19.6737 24.9177 20.0706 25.3147 20.5602 25.3147H29.6099C31.0764 25.3147 32.2695 24.1216 32.2695 22.6551V12.0168C32.2695 10.5503 31.0764 9.3572 29.6099 9.3572H6.56028V2.66137C6.56028 2.17254 6.95798 1.77485 7.44681 1.77485H30.1356V6.02928C30.1356 7.49577 31.3287 8.68885 32.7952 8.68885H37.053V24.9567H34.4201C33.9305 24.9567 33.5336 25.3537 33.5336 25.8432V33.3709H31.383C31.059 33.3709 30.7607 33.5477 30.6052 33.8319C30.4497 34.1162 30.4617 34.4626 30.6364 34.7355L35.1864 41.8408L7.44681 41.8409ZM37.9433 42.8581L33.0034 35.144H34.4201C34.9097 35.144 35.3066 34.747 35.3066 34.2575V26.7297H40.5798V34.2575C40.5798 34.747 40.9767 35.144 41.4663 35.144H42.8831L37.9433 42.8581Z" fill="#ED5C60"/>
<path d="M16.5711 25.3146C17.0607 25.3146 17.4576 24.9176 17.4576 24.428C17.4576 23.9384 17.0607 23.5415 16.5711 23.5415C16.0815 23.5415 15.6846 23.9384 15.6846 24.428C15.6846 24.9176 16.0815 25.3146 16.5711 25.3146Z" fill="#ED5C60"/>
</g>
<defs>
<clipPath id="clip0_328_191">
<rect width="45.3901" height="45.3901" fill="white"/>
</clipPath>
</defs>
</svg>
