<svg width="249" height="421" viewBox="0 0 249 421" fill="none" xmlns="http://www.w3.org/2000/svg">
<path d="M42.1804 340.039C42.6864 339.84 43.196 339.668 43.732 339.551C43.9041 339.52 43.8729 339.573 43.9358 339.724L44.7274 341.549C48.0617 349.38 56.2726 354.653 64.6725 355.25C78.3135 356.119 88.9289 347.123 91.0494 333.765C91.7033 325.101 87.1716 316.409 80.6841 310.843C74.758 306.596 66.9776 305.261 59.8194 305.922C49.3382 306.73 43.387 317.994 43.4435 327.588C43.3856 330.427 43.671 333.263 44.2934 336.033C42.89 335.955 41.4178 336.383 40.1179 336.906C37.0384 338.205 34.0785 339.778 31.1072 341.301C30.8722 341.458 30.5853 341.608 30.2792 341.756L31.6937 329.769C32.948 320.853 34.5162 311.945 34.967 302.936C35.091 300.944 35.1548 298.948 35.2021 296.951C36.2385 295.94 37.0389 294.653 38.1312 293.661C40.8876 290.918 43.9613 288.515 46.824 285.879C47.9251 284.93 49.0261 283.915 50.3142 283.223C53.691 286.987 58.2871 289.584 63.1798 290.829C78.5934 295.766 92.0862 282.054 95.103 267.833C99.7232 248.869 91.8519 237.669 71.9293 238.028C64.4581 237.926 57.6084 242.243 53.439 248.272C50.8649 252.073 49.49 256.567 48.3925 260.98C46.6758 267.306 47.4003 273.892 49.5301 280.031C46.469 281.098 39.2903 287.434 35.3186 292.05C35.4117 288.553 35.5719 285.066 36.0555 281.598C36.9412 275.251 38.9773 269.148 40.7315 263.008C44.4907 247.373 55.7671 235.31 62.9949 221.277C63.2461 221.129 63.4642 220.924 63.5732 220.611C65.4798 218.603 68.3451 217.797 70.8684 216.805C72.7611 216.064 74.7543 215.521 76.6898 214.909C77.8204 214.55 78.943 213.481 80.1134 213.337C82.1145 213.089 81.9321 214.209 83.3712 215.473C86.4667 218.189 92.404 218.639 96.2799 218.007C104.106 216.291 112.26 209.127 111.413 200.531C110.767 196.317 107.897 192.459 104.282 190.27C100.213 188.155 95.1987 189.062 91.22 190.952C86.427 193.232 84.619 196.933 82.2814 201.406C81.6029 202.705 80.6558 204.061 80.1733 205.442C79.5222 207.303 80.4646 208.22 80.2955 210.133C80.1838 211.421 74.9084 212.132 73.7806 212.485C72.3077 212.948 66.1821 214.262 65.5484 215.727C67.0613 212.244 68.4203 208.698 69.5872 205.089C72.4629 195.902 75.5554 186.718 77.1397 177.199C78.2771 170.472 78.3367 163.64 78.5782 156.838C78.7772 156.908 78.9733 156.983 79.1972 156.965L79.3248 157.316C79.3592 157.383 79.5285 157.562 79.5452 157.622C79.3759 160.737 80.8897 163.72 82.9473 165.984C90.688 175.796 107.398 174.449 114.591 164.693C117.28 160.917 118.381 156.127 118.059 151.533C116.532 137.956 106.728 131.394 93.6786 135.926C89.9559 137.216 86.8214 140.204 84.5433 143.323C83.2012 145.16 79.1339 150.737 79.7482 153.137C79.426 153.335 79.0953 153.411 78.7413 153.551C79.0876 146.793 79.6231 140.044 80.7142 133.366L81.0776 130.918C81.3446 130.739 81.6012 130.528 81.8334 130.296C85.9505 126.941 89.8623 123.35 93.4876 119.467C94.4205 118.488 95.3577 117.502 96.3803 116.636C96.4229 116.634 96.5843 116.795 96.6235 116.826C102.907 121.6 111.732 120.754 118.087 116.586C123.258 113.528 127.81 108.268 128.352 102.101C128.677 95.9973 125.482 89.5172 120.233 86.3045C116.743 84.3064 112.447 84.2742 108.717 85.6057C102.708 87.3306 96.4735 90.4226 93.4321 96.157C90.1781 101.887 92.9582 108.385 95.0918 113.982C90.8303 117.566 87.2918 121.991 83.1156 125.702L81.6495 127.076L83.3185 115.826C84.1778 110.123 85.2662 104.288 88.1994 99.2415C95.9848 85.8098 107.522 75.0191 119.589 65.442C121.02 64.2402 122.514 63.1302 124.009 62.0244C124.57 62.1768 125.226 62.1021 125.813 62.0987C127.884 62.0879 129.951 62.2348 132.016 62.3665C136.842 62.829 141.609 63.8389 146.427 64.4082C149.743 64.9229 153.281 65.0799 156.329 66.5932C157.801 67.82 157.898 70.0384 158.778 71.6676C160.767 76.1883 163.384 80.5157 167.097 83.8295C179.094 95.9208 196.955 84.7131 197.058 69.2641C197.43 62.478 196.453 57.8171 189.883 54.6658C181.642 51.1396 171.604 51.6773 163.917 56.341C161.36 58.0045 158.579 59.8308 157.337 62.7317C157.237 62.9548 157.152 63.184 157.081 63.4179C157.072 63.5069 157.023 63.5017 156.934 63.4067C155.368 62.654 153.672 62.2622 151.982 61.9116C144.189 60.5807 136.358 59.164 128.437 58.9676C133.518 55.6509 138.876 52.7636 144.479 50.3791C154.939 45.5018 166.068 42.3237 177.398 40.2235C185.89 38.5138 194.487 37.3548 203.14 36.928C208.708 36.7757 214.502 36.0533 219.924 37.6181C220.052 37.6508 220.159 37.7174 220.262 37.7853C220.224 38.0561 220.212 38.3302 220.297 38.6103C217.971 43.7993 216.566 50.9186 220.438 55.8184C223.893 59.4782 228.563 62.2583 233.607 62.898C238.422 63.1366 244.24 57.5647 246.523 53.6312C249.581 48.6708 247.367 42.7782 244.949 38.0322C241.556 31.4618 232.752 30.2026 226.422 32.9539C225.372 33.3719 223.478 34.2202 222.055 35.3151C216.357 31.2403 190.458 34.0347 183.534 35.1338C184.4 33.597 184.815 31.803 184.839 30.0492C184.843 29.8683 184.808 29.9156 184.975 29.9024C187.486 29.7165 189.975 29.302 192.412 28.6641C198.286 27.267 209.001 22.8804 211.561 17.1708C213.268 12.4289 210.436 7.44843 207.252 4.01763C202.113 -0.851175 193.673 -1.1471 187.693 2.33131C178.184 7.9915 178.91 14.7131 180.888 24.329C181.401 27.5488 182.385 31.1332 180.641 34.1516C180.364 34.7921 179.691 35.3081 179.276 35.8732C172.466 37.0733 165.672 38.4204 159.051 40.4061C160.079 39.8446 161.071 39.2203 162.021 38.5369C166.848 34.8928 171.671 29.1831 172.529 23.0472C173.03 18.4624 172.254 13.6778 170.424 9.44835C168.784 6.0799 165.652 3.53209 162.315 1.94305C154.802 -0.792277 145.25 2.44889 141.148 9.35125C138.047 14.8636 137.808 22.3285 141.168 27.7873C142.839 30.5034 144.946 32.8319 147.076 35.1897C149.088 37.4161 150.789 40.6089 153.488 41.8766C149.521 43.3611 145.526 45.2112 141.628 46.9399C139.403 47.9196 137.207 48.9644 135.043 50.0729C133.553 50.8387 129.541 52.192 128.681 53.6205C132.45 47.337 132.532 39.083 127.972 33.0667C125.601 29.5506 122.663 26.1385 118.727 24.3633C113.422 21.7858 107.027 23.6855 102.927 27.6074C98.1116 32.386 99.932 40.3886 103.161 45.5882C107.372 51.459 113.563 55.7892 119.83 59.2417C119.505 59.5562 119.097 59.7921 118.812 60.1444C118.684 60.3293 118.607 60.5443 118.588 60.7682C105.204 71.0255 92.8732 83.0059 84.551 97.7176C82.5928 101.382 81.3831 105.29 80.5212 109.301L79.8901 106.636C80.0564 104.867 80.3556 103.109 80.7774 101.395C82.0651 95.959 82.1531 90.34 83.1919 84.8633C85.3004 74.8475 86.5981 64.6933 88.5686 54.6569C88.598 54.4161 88.6398 54.1714 88.6514 53.9316C90.0321 52.364 91.1267 49.1502 91.6309 48.0644C94.6831 40.587 94.4644 31.1501 88.7961 24.9472C86.0536 21.5787 82.351 19.1087 78.1355 18.0247C75.4235 17.0269 72.3992 16.9076 69.706 18.0321C65.0914 20.0975 61.3446 24.021 59.138 28.5279C57.937 31.8521 58.142 35.6061 59.3754 38.8992C61.7795 45.3278 67.5948 49.8385 73.7602 52.4482C77.5863 54.1484 81.8328 55.5362 85.9796 54.2363C86.0307 54.2908 86.0776 54.2808 86.1275 54.3243L86.0851 54.5237C83.9938 62.1176 82.859 69.909 81.3496 77.6285C80.101 83.2213 79.2491 88.8955 78.8002 94.6087C78.59 96.725 78.1745 98.8166 77.7837 100.907C78.1712 98.8426 73.1001 93.4622 71.8154 91.9498C70.4595 90.355 68.6135 89.3374 68.628 87.1254C68.6441 85.1149 70.5356 82.264 70.7408 79.979C71.2928 73.8589 69.2192 67.7181 66.2728 62.428C54.2312 39.9145 24.1678 47.0328 35.0626 73.8824C38.1915 81.4118 45.0588 86.8486 52.4973 89.8115C56.7506 91.6218 61.5372 90.8655 65.6685 88.955C70.1726 93.7261 74.1613 99.1755 76.5422 105.318C76.7215 105.762 76.8483 106.22 76.982 106.678C76.749 111.293 77.2554 115.984 78.7486 120.373L77.5539 128.562C77.1807 130.804 76.906 133.063 76.5999 135.316C74.8127 131.795 72.9173 128.33 70.9161 124.926C70.2815 123.844 69.593 122.78 69.047 121.655C72.0481 119.733 67.9089 111.39 66.7807 109.097C65.098 105.534 62.6822 102.366 59.6912 99.8003C55.8922 96.9265 50.7522 96.8185 46.2127 97.3616C35.3213 98.4487 35.3191 108.583 40.6634 115.918C43.9576 120.539 48.2212 124.845 53.7613 126.593C58.1262 127.96 63.7608 127.475 66.8104 123.982C69.4646 128.991 72.3032 133.899 75.0724 138.847C75.317 139.318 75.5729 139.913 75.9348 140.345C75.5519 143.787 75.2388 147.234 75.0518 150.693C74.5038 158.013 74.7038 165.386 73.8572 172.682C73.1839 178.624 71.7357 184.412 70.065 190.142C69.912 189.404 69.8045 188.658 69.6116 187.93C67.8666 182.384 65.8632 176.935 62.7243 172.018C62.6297 171.875 62.5366 171.722 62.5139 171.554C62.4837 171.341 62.5702 171.13 62.6563 170.933C65.1525 165.089 64.961 159.032 63.0205 152.961C61.6228 148.595 60.1232 144.251 58.1741 140.091C55.1821 133.7 47.8359 130.72 41.0824 130.821C35.0009 130.658 29.4656 132.379 28.0184 138.957C25.8861 148.081 30.418 157.181 35.3333 164.634C38.8188 169.715 44.2657 173.773 50.4744 174.591C54.1791 175.13 57.6242 174.493 60.2759 172.762C62.9662 179.074 65.8985 185.434 67.3883 192.172C67.7847 193.72 67.7429 195.364 68.0197 196.922L66.9341 200.376C64.8133 207.373 62.2992 214.274 58.8322 220.727C53.5286 230.236 47.0666 239.067 42.1862 248.826C42.0363 249.125 41.9054 249.434 41.7582 249.734C41.6323 245.862 41.6093 241.992 41.3021 238.129C40.7714 232.508 40.5224 226.864 39.7402 221.266C39.1475 216.013 39.3642 210.618 37.7145 205.53C35.5686 196.142 29.1822 190.878 23.2175 184.678C24.5164 184.065 25.1946 181.381 25.7363 180.269C29.7337 170.695 27.1703 159.857 21.7067 151.396C19.2425 147.267 16.7153 142.921 12.5565 140.277C0.931377 134.129 -14.7068 137.448 -22.7394 147.872C-28.5038 154.993 -28.44 165.543 -24.6101 173.565C-20.1149 181.244 -10.0088 187.335 -1.20236 188.259C5.86272 189.551 12.9001 187.912 19.5374 185.472C24.3839 191.042 30.8676 195.474 33.3859 202.656C36.4063 209.91 35.7769 217.814 36.8404 225.444L38.3223 242.888C38.6544 247.866 38.6761 253.203 38.103 258.162C37.5478 262.975 35.551 268.053 34.1656 272.731C32.2564 279.43 31.728 286.311 31.3596 293.216L27.9053 289.204C25.8287 286.791 23.7633 284.37 21.5554 282.075C21.7327 281.777 21.8274 281.425 21.755 281.061C21.6511 280.692 21.4232 280.42 21.1617 280.179C22.4853 275.572 22.1918 270.66 21.1962 266.009C19.3791 254.753 12.4239 242.594 0.387829 240.338C-7.3816 238.863 -15.8315 240.889 -22.1618 245.59C-30.9598 252.575 -29.0274 266.139 -22.6772 274.165C-19.5227 278.491 -15.6318 282.49 -10.5574 284.478C-2.98586 287.722 5.75403 288.542 13.4628 285.334C14.5677 284.82 17.2333 284.059 19.0795 283.03C19.4011 283.493 19.8402 283.91 20.1347 284.352C22.2924 287.601 25.1235 290.649 27.7032 293.568C32.1554 298.61 30.7578 306.367 29.7759 312.376C28.3757 322.019 26.617 331.613 25.8203 341.334C25.0169 351.12 22.352 360.612 19.0381 369.822C18.8713 370.285 18.7276 370.757 18.5621 371.217C17.4624 368.316 16.01 365.552 14.1616 363.048C11.7289 359.34 8.33792 356.092 6.90269 351.823C6.29863 349.74 6.39343 347.56 6.52587 345.42C6.7382 341.3 7.159 337.185 7.35893 333.069C7.62647 324.026 5.23055 314.236 -1.43123 307.761C-10.8002 298.424 -24.6179 303.851 -32.4727 312.347C-40.1448 320.131 -37.4057 332.435 -31.8897 340.671C-27.4375 347.672 -19.8176 351.88 -11.9821 354.047C-6.61081 355.516 -0.936628 355.32 4.56188 355.128C6.24562 358.335 8.57943 361.136 10.6773 364.076C13.4995 367.769 15.5726 371.979 16.7801 376.466C14.4765 383.547 12.3376 390.697 9.10289 397.407C6.25971 403.318 2.86905 408.952 -0.748832 414.419L-2.5106 417.022C-3.23367 417.865 -3.96307 419.03 -3.25558 420.105C-3.09634 420.343 -2.88528 420.542 -2.63829 420.687C-2.3913 420.832 -2.11473 420.92 -1.82917 420.943C-1.54362 420.967 -1.25652 420.925 -0.989279 420.822C-0.722038 420.719 -0.481601 420.557 -0.285897 420.348C0.175439 419.838 0.568972 419.221 0.97239 418.657C2.95061 415.931 4.85864 413.148 6.61068 410.272C9.04302 406.286 11.3016 402.201 13.3198 397.993C17.2742 389.424 19.7694 380.474 22.9133 371.607C25.3921 364.615 27.7528 357.557 29.0608 350.241C29.3277 348.781 29.559 347.315 29.7547 345.844C29.9642 345.722 30.1765 345.601 30.3954 345.494C34.3588 343.752 38.2406 341.835 42.1722 340.034L42.1804 340.039Z" fill="#FFD5D6"/>
</svg>
