<svg width="310" height="452" viewBox="0 0 310 452" fill="none" xmlns="http://www.w3.org/2000/svg">
<mask id="mask0_328_495" style="mask-type:luminance" maskUnits="userSpaceOnUse" x="0" y="-31" width="750" height="483">
<path d="M0 -31H749.79V452H0V-31Z" fill="white"/>
</mask>
<g mask="url(#mask0_328_495)">
<path d="M127.117 441.095C128.583 443.439 130.815 443.786 133.068 443.284C136.404 442.535 139.463 440.807 142.612 439.385C145.224 438.21 148.256 436.855 151.138 437.465L152.187 438.022C156.591 440.498 161.193 443.687 163.897 448.685L164.249 450.908L165.035 456.314C165.255 457.915 165.494 459.745 165.035 461.308L162.932 464.079L161.651 465.477L162.036 466.109L163.216 464.829C165.594 462.071 167.572 458.59 169.395 455.279L170.418 453.39C170.478 453.43 170.549 453.454 170.628 453.435C171.718 453.208 172.776 452.474 173.723 451.857C174.913 451.081 176.096 450.272 177.085 449.157C180.022 445.84 182.108 441.583 185.269 438.526C187.644 436.228 190.292 434.281 192.999 432.518C193.725 432.644 194.612 432.271 195.307 432.223C196.691 432.119 198.045 432.232 199.426 432.432L206.798 433.482C211.116 433.769 217.154 433.041 217.761 426.715C218.181 422.297 216.497 416.879 213.457 414.093C211.699 412.477 209.252 411.381 207.044 411.854C204.595 412.382 202.685 414.374 201.252 416.701L195.261 427.622L193.656 430.576C193.531 430.82 193.118 431.416 193.039 431.862C190.569 433.417 188.138 435.131 185.933 437.106C182.746 439.963 180.581 443.718 177.892 447.149C176.712 448.652 175.469 449.854 173.966 450.86C172.991 451.508 171.926 452.297 170.82 452.649L174.908 444.01C176.667 439.708 178.095 435.29 179.266 430.753C179.288 430.777 179.317 430.794 179.349 430.802C179.38 430.81 179.414 430.808 179.445 430.798C182.005 429.953 183.883 426.282 185.106 423.695L189.252 413.907C191.154 413.039 192.853 411.642 194.736 410.729L197.023 409.691C197.061 409.793 197.137 409.872 197.242 409.879C199.195 409.964 201.116 410.654 203.103 410.626C205.021 410.59 206.924 410.272 208.75 409.682C210.313 409.182 213.782 408.054 213.177 405.284C212.375 401.606 208.404 399.715 205.591 400.583C203.875 401.109 202.251 402.208 200.975 403.669C199.403 405.479 198.475 407.99 196.58 409.382L193.823 410.697C192.673 411.28 191.613 412.085 190.466 412.679C190.249 412.787 189.964 412.891 189.684 413.018L190.759 410.971C191.875 409.037 193.084 407.205 194.356 405.432C194.394 405.47 194.456 405.475 194.494 405.413C195.228 404.188 197.075 403.814 198.2 403.302L201.273 401.903L207.856 398.792C210.38 397.506 212.939 396.124 215.24 394.325C216.888 393.034 218.576 391.482 219.533 389.367C221.686 384.596 219.041 378.596 215.343 375.948C210.293 372.333 204.454 374.96 201.565 380.602C199.797 384.057 198.602 388.08 197.73 391.999L196.858 396.524L196.334 398.347L195.261 402.106C195.116 402.591 194.709 403.496 194.746 404.133L191.166 409.441C190.404 410.705 189.73 412.009 189.097 413.336L189.374 411.397L190.108 406.817C191.792 403.436 194.256 400.178 194.557 396.084C194.7 394.178 194.58 390.552 192.458 390.107C189.907 389.565 187.637 392.129 187.321 394.992C187.126 396.753 187.519 398.587 187.93 400.274L189.543 406.583C189.57 406.664 189.625 406.715 189.68 406.733L189.118 410.419C188.955 412.021 188.848 413.729 188.244 415.18L185.255 422.277C184.55 423.933 183.713 425.535 182.736 426.972C181.845 428.285 180.793 429.784 179.384 430.282L181.517 420.134L182.145 416.115C182.177 416.115 182.205 416.101 182.213 416.054C182.342 415.414 182.409 414.769 182.43 414.114C183.293 407.712 183.813 401.23 183.861 394.727C183.887 391.171 183.739 387.637 183.47 384.114C183.55 383.906 183.601 383.685 183.618 383.462C183.723 383.395 183.799 383.238 183.727 383.071C183.646 382.879 184.798 381.111 185.015 380.763C185.84 379.433 186.691 378.132 187.556 376.838C188.946 374.746 190.466 372.755 191.758 370.571C192.879 368.679 193.939 366.75 194.934 364.787C196.277 363.959 197.188 362.555 198.277 361.317C199.575 359.832 201.034 358.615 202.478 357.344C204.399 355.65 206.508 353.792 207.333 350.987C208.655 346.489 207.06 341.093 203.567 338.555C201.646 337.162 199.13 336.327 197.006 337.422C194.793 338.564 193.632 340.655 193.348 343.484C193.015 346.882 193.52 350.279 194.15 353.608C194.532 355.626 194.951 357.653 195.102 359.716C195.243 361.562 194.612 362.9 194.298 364.632C194.277 364.758 194.325 364.862 194.401 364.927C193.178 367.406 191.838 369.811 190.305 371.963C188.703 374.216 187.113 376.497 185.601 378.841C184.953 379.843 184.303 380.858 183.737 381.932C183.634 382.127 183.465 382.4 183.366 382.683C183.164 380.331 182.908 377.982 182.605 375.639C182.813 375.148 182.647 374.192 182.236 372.967L181.55 368.457L180.648 363.252C181.23 363.102 181.742 360.834 182.01 360.218L184.105 355.535C185.305 352.795 186.292 349.984 186.97 346.985C187.957 342.576 188.415 338.057 188.454 333.494C191.259 334.308 192.323 327.317 191.421 325.114C191.367 324.987 191.213 324.985 191.139 325.075C190.705 325.597 190.284 326.134 189.837 326.632C189.018 327.533 188.779 326.367 188.291 325.616C188.196 325.471 188.01 325.48 187.962 325.671C187.842 326.211 187.678 326.74 187.474 327.253C187.054 326.505 186.686 325.752 186.002 325.282C185.911 325.218 185.811 325.264 185.756 325.359C184.891 326.894 185.992 333.306 188.004 333.213C188.002 333.265 188.012 333.313 188.06 333.341C188.091 333.353 188.117 333.361 188.15 333.374C188.093 337.772 187.67 342.168 186.695 346.387C186.235 348.387 185.652 350.356 184.948 352.283C184.949 350.429 184.748 348.673 184.105 346.901L183.584 345.512C185.249 344.429 184.982 340.907 184.153 338.997C184.086 338.847 183.914 338.876 183.849 339C183.579 339.497 183.326 339.987 182.999 340.424C182.741 339.88 182.473 339.364 182.134 338.88C182.038 338.742 181.862 338.84 181.825 338.981C181.603 339.791 181.582 340.644 181.417 341.469C180.924 340.865 180.456 340.251 179.868 339.778C179.759 339.689 179.572 339.809 179.591 339.975C179.701 340.955 180.905 346.113 182.325 345.561C182.347 345.578 182.363 345.593 182.387 345.611C182.311 345.671 182.346 345.849 182.456 345.845C182.786 345.842 183.073 345.775 183.328 345.657C183.341 345.693 183.357 345.73 183.369 345.761C183.72 346.67 184.076 347.575 184.329 348.535C184.683 349.902 184.738 351.3 184.796 352.707C184.526 353.413 184.244 354.117 183.94 354.81L182.048 359.021L181.242 360.911C181.164 361.106 180.872 362.136 180.662 362.567C180.64 362.574 180.612 362.592 180.59 362.614C180.568 362.636 180.561 362.642 180.55 362.652C179.273 355.453 177.856 348.272 176.38 341.131L175.911 338.994C175.973 338.981 176.022 338.937 176.031 338.842C176.39 336.18 176.939 333.568 177.279 330.9C177.412 329.851 177.498 328.794 177.574 327.736C177.605 327.716 177.63 327.691 177.649 327.652C178.384 326.084 179.281 324.648 180.237 323.27C181.204 321.869 182.15 320.326 183.443 319.327C184.965 318.147 186.688 317.464 188.346 316.617C189.524 317.6 191.574 319.22 192.913 318.39C193.78 317.861 192.953 316.334 192.569 315.503C192.894 315.301 193.178 315.013 193.534 314.857C193.663 314.802 193.718 314.647 193.653 314.497C193.304 313.738 192.807 313.476 192.165 313.31C192.587 312.527 193.099 311.821 193.443 310.978C193.526 310.779 193.383 310.569 193.202 310.616C190.623 311.29 188.857 313.055 188.031 316.037C188.01 316.078 187.996 316.123 187.992 316.168C187.985 316.189 187.983 316.211 187.976 316.229C187.961 316.286 187.99 316.331 188.028 316.353C186.107 317.236 184.108 318.012 182.557 319.594C180.669 321.518 178.924 324.153 177.644 326.762C177.739 325.275 177.833 323.779 178.003 322.302C178.351 319.197 179.027 316.306 180.363 313.614C180.747 312.845 181.16 312.092 181.603 311.356C181.771 311.435 181.947 311.506 182.143 311.554C182.212 311.571 182.256 311.521 182.274 311.461C184.581 311.868 186.948 311.314 188.729 309.446C189.558 308.578 190.416 307.607 191.145 306.615C191.605 305.987 192.129 305.294 192.141 304.407C192.145 304.268 192.04 304.174 191.931 304.164C191.907 304.161 191.89 304.164 191.864 304.166C191.699 304.064 191.493 304.054 191.28 304.08C190.972 304.104 190.667 304.159 190.37 304.245C190.334 304.257 190.451 302.346 190.473 302.139C190.495 301.965 190.339 301.765 190.194 301.887C189.84 302.184 189.488 302.482 189.108 302.715C188.471 303.096 188.055 303.534 188.237 302.239C188.347 301.478 188.483 300.735 188.518 299.964C188.525 299.805 188.378 299.691 188.263 299.733C187.611 299.962 187.154 300.366 186.707 300.887C186.643 300.837 186.556 300.823 186.495 300.875C186.249 300.048 186.361 299.198 186.356 298.315C186.356 298.154 186.215 298.032 186.091 298.078C185.364 298.33 184.855 298.896 184.406 299.563C184.356 298.575 184.396 297.585 184.294 296.591C184.274 296.383 184.072 296.262 183.936 296.424C183.419 297.035 182.691 297.54 182.373 298.328C180.54 300.526 178.468 307.585 180.511 310.445C180.686 310.957 180.924 311.328 181.231 311.288C179.481 314.233 178.203 317.528 177.74 321.228C177.591 322.416 177.498 323.615 177.415 324.816C177.235 322.294 176.803 319.746 176.12 317.362C177.302 315.863 177.273 313.191 175.991 311.621C175.909 311.518 175.737 311.564 175.716 311.711C175.699 311.847 175.307 313.688 175.216 313.571C174.913 313.177 174.648 312.753 174.359 312.342C174.265 312.208 174.089 312.328 174.086 312.479C174.088 312.936 174.028 313.365 173.942 313.793C173.601 313.434 173.314 313.039 173.064 312.561C172.996 312.429 172.8 312.439 172.776 312.604C172.492 314.633 173.821 318.464 175.888 318.318C176.609 321.245 177.018 324.174 177.236 327.248C177.164 328.269 177.078 329.287 176.953 330.296C176.616 332.965 176.038 335.576 175.735 338.252C174.021 330.853 171.732 323.62 170.452 316.096C169.733 311.89 169.116 307.31 169.589 303.041C169.964 299.664 171.08 296.603 172.825 293.945C175.551 289.79 179.221 286.26 181.219 281.573C181.247 281.575 181.273 281.57 181.305 281.568C185.618 283.064 188.531 276.486 189.582 272.517C189.639 272.3 189.415 272.122 189.262 272.229C188.261 272.93 187.209 274.351 186.036 274.601C184.59 274.913 184.767 271.136 184.729 270.159C184.721 269.992 184.545 269.835 184.42 269.952C183.417 270.849 182.777 272.133 181.897 273.169C181.68 272.227 181.505 271.274 181.223 270.352C181.068 269.847 180.762 268.55 180.194 268.443C178.805 268.182 178.827 271.596 178.803 272.567C178.769 274.056 179.13 280.54 180.831 281.465C180.256 282.776 179.556 284.007 178.748 285.163C175.412 289.959 170.875 294.021 169.463 300.31C169.181 293.476 171.23 286.731 170.497 279.84C170.212 277.113 169.629 274.587 168.657 272.084C168.604 271.952 168.553 271.818 168.506 271.684C168.571 271.6 168.624 271.52 168.674 271.425C170.425 270.014 168.892 263.349 166.547 263.223C166.418 263.216 166.342 263.344 166.334 263.482C166.289 264.375 166.308 265.26 166.091 266.107C165.525 265.429 164.994 264.787 164.224 264.427C164.093 264.368 163.928 264.522 163.947 264.686C163.974 264.924 164.236 267.827 164.108 267.767C163.295 267.378 162.619 266.713 161.862 266.193C161.651 266.052 161.482 266.33 161.57 266.552C162.337 268.522 163.573 271.536 165.415 272.348C166.16 272.681 167.465 272.585 168.237 271.953L168.843 273.789C169.758 276.517 170.17 279.441 170.225 282.357C170.339 288.229 168.851 294.054 169.015 299.917C168.664 298.463 168.077 297.047 167.573 295.801C166.874 294.078 166.256 292.324 165.424 290.685C164.996 289.842 164.553 289.007 164.096 288.18C164.1 288.151 164.101 288.122 164.093 288.092C165.955 286.155 165.704 282.144 163.446 280.461C163.352 280.39 163.231 280.44 163.174 280.547C162.767 281.365 162.542 282.276 162.23 283.154C161.798 282.713 161.387 282.252 160.997 281.774C160.899 281.656 160.684 281.701 160.669 281.881C160.626 282.332 160.745 284.901 159.974 284.299C159.444 283.885 158.958 283.471 158.37 283.2C158.22 283.128 158.119 283.326 158.143 283.48C158.507 285.75 161.739 290.681 163.842 288.548L164.853 290.43C165.675 292.025 166.308 293.7 167.013 295.361C167.873 297.38 169.059 299.831 169.13 302.208C168.554 306.401 168.901 310.826 169.634 315.161C168.6 312.011 167.152 308.975 165.527 306.243C164.53 304.564 163.463 302.931 162.263 301.451C161.651 300.702 161.023 299.962 160.347 299.291C160.057 298.999 159.759 298.713 159.455 298.435L159.08 298.109C159.087 298.077 159.097 298.052 159.104 298.016C159.123 297.945 159.102 297.88 159.071 297.835C160.437 295.9 159.303 292.658 157.568 290.954C157.455 290.842 157.267 290.873 157.231 291.061C157.119 291.677 157.082 292.279 157.037 292.907C156.949 294.142 156.11 293.174 155.702 292.669C155.551 292.479 155.331 292.682 155.37 292.908C155.513 293.705 155.687 294.482 155.775 295.291C154.808 295.032 153.909 294.527 152.965 294.156C152.784 294.088 152.681 294.332 152.751 294.506C153.42 296.148 157.718 301.727 158.932 298.599C164.053 303.202 167.402 309.9 169.929 316.81C170.421 319.389 171.023 321.918 171.615 324.321L174.795 336.794C175.383 339.237 175.885 341.704 176.371 344.172C176.091 343.796 175.792 343.444 175.489 343.108L172.631 339.918C170.445 337.598 168.198 335.305 165.799 333.308L163.431 331.378C164.504 328.086 163.001 324.378 161.493 321.566C160.538 319.779 159.456 318.087 158.337 316.434C158.139 316.149 157.95 315.837 157.754 315.516C158.148 314.837 158.236 313.821 158.15 313.022C157.957 311.25 156.812 310.578 155.751 309.474C155.665 309.384 155.568 309.451 155.541 309.543C155.36 309.336 155.18 309.134 155.004 308.915C154.934 308.827 154.844 308.825 154.774 308.875C154.751 308.853 154.724 308.832 154.703 308.81C154.609 308.715 154.475 308.877 154.571 308.975C154.603 309.011 154.643 309.049 154.679 309.086C154.679 309.104 154.671 309.122 154.674 309.146C154.813 309.838 155.068 310.528 155.082 311.242C154.586 310.736 154.127 310.181 153.561 309.786C153.407 309.675 153.229 309.853 153.276 310.053C153.432 310.735 153.745 311.281 154.005 311.894C153.333 311.863 152.698 311.575 152.036 311.399C151.867 311.354 151.723 311.561 151.818 311.749C152.665 313.465 154.963 316.705 156.877 316.236C157.111 316.174 157.305 316.056 157.469 315.894C157.487 315.918 157.508 315.942 157.524 315.968C158.622 317.547 159.711 319.135 160.677 320.831C162.408 323.864 164.134 327.543 163.278 331.252C161.721 330.03 160.103 328.892 158.418 328.083C157.118 327.45 155.759 327.007 154.421 326.508C154.729 325.984 153.534 324.331 153.338 324.09C152.308 322.825 150.698 320.928 149.119 320.91C148.973 320.907 148.908 321.093 148.968 321.236C149.245 321.88 149.458 322.535 149.665 323.212C149.064 323.11 148.497 323.055 147.893 323.194C147.761 323.225 147.735 323.406 147.785 323.532C148.098 324.319 148.585 324.85 149.111 325.413C148.359 325.766 147.561 325.564 146.765 325.461C146.564 325.435 146.535 325.739 146.628 325.877C148.105 328.083 150.364 328.519 152.567 328.167C153.288 328.045 154.335 327.709 154.454 326.972C155.505 327.353 156.562 327.726 157.597 328.185C160.172 329.342 162.607 331.212 164.88 333.066C167.393 335.116 169.783 337.41 172.081 339.799L172.755 340.513C170.268 340.087 167.694 339.711 165.345 338.595C165.405 338.45 165.444 338.291 165.462 338.116C166.518 336.736 162.851 333.796 162.007 333.356C161.873 333.291 161.692 333.403 161.749 333.601C161.969 334.336 162.17 335.067 162.322 335.821C161.74 335.566 161.183 335.295 160.559 335.214C160.413 335.195 160.332 335.423 160.404 335.554C160.722 336.173 161.107 336.711 161.326 337.379C160.715 337.257 160.098 337.165 159.479 337.101C159.333 337.086 159.25 337.305 159.322 337.446C160.089 338.918 161.957 339.658 163.317 339.69C164.014 339.709 164.722 339.475 165.133 338.969C167.598 340.217 170.439 340.781 172.953 340.758C173.591 341.398 174.194 342.057 174.801 342.711C175.367 343.323 175.976 343.941 176.476 344.655L177.494 349.915L181.295 370.521C179.335 366.028 175.979 360.247 175.438 359.276C173.321 355.481 170.901 351.886 168.115 348.745C166.041 346.406 163.739 344.55 161.415 342.592C159.855 341.279 158.277 340.001 156.612 338.921C156.628 338.88 156.636 338.836 156.636 338.792C157.138 338.198 156.86 336.894 156.518 336.194C155.671 334.481 154.192 333.81 152.677 333.242C152.543 333.196 152.419 333.358 152.462 333.51C152.548 333.846 153.185 335.08 152.48 334.995C152.027 334.933 151.587 334.831 151.142 334.735C151.009 334.705 150.843 334.841 150.906 335.023C151.155 335.725 151.491 336.325 151.878 336.927C151.321 337.02 150.794 337.151 150.272 337.429C150.182 337.476 150.148 337.653 150.206 337.752C151.241 339.401 155.133 341.472 156.399 339.378C158.193 340.532 159.876 341.923 161.546 343.33C163.83 345.26 166.119 347.084 168.127 349.44C170.687 352.443 172.957 355.682 174.908 359.114C176.621 362.138 178.289 365.203 179.823 368.358C180.01 368.752 180.805 370.235 181.484 371.777C181.797 373.837 182.078 375.9 182.329 377.968C183.629 388.925 183.477 400.007 182.217 410.881C182.114 410.231 181.985 409.579 181.835 408.937C181.2 406.21 180.389 403.474 179.441 400.869C177.35 395.142 174.335 389.793 170.17 385.903C169.916 385.667 169.649 385.441 169.384 385.21C168.571 384.151 167.72 383.128 166.968 382.001C166.167 380.804 165.457 379.517 164.765 378.222C164.578 377.723 164.463 377.175 164.394 376.605C164.404 376.557 164.395 376.505 164.375 376.464C164.223 375.043 164.339 373.5 164.335 372.195C164.325 370.371 164.335 368.543 164.234 366.719C164.079 363.915 163.34 361.375 161.512 359.445C159.725 357.556 157.482 356.302 155.156 355.78C153.274 355.36 150.856 355.058 149.149 356.287C145.049 359.231 149.828 365.89 152.225 368.274C154.373 370.408 156.985 370.492 159.374 371.967C160.703 372.786 161.747 373.877 162.741 375.201L162.798 375.281L163.291 376.197C164.318 378.084 165.279 380.078 166.468 381.832C167.03 382.671 167.639 383.464 168.265 384.249C165.357 381.852 162.151 379.842 158.729 378.27C158.328 377.602 157.713 377.164 157.161 376.671C155.94 375.584 154.88 374.215 153.752 372.993C151.42 370.473 148.872 367.858 145.855 366.64C143.367 365.634 139.909 364.927 137.68 366.963C134.28 370.064 134.412 377.708 137.434 381.344C140.038 384.477 144.065 383.825 147.26 382.865C149.259 382.265 151.2 381.465 153.157 380.702C154.048 380.352 154.946 380.005 155.857 379.729C156.511 379.533 158.094 378.853 158.846 379.233C158.863 379.234 158.874 379.227 158.887 379.24C158.917 379.245 158.942 379.248 158.972 379.255C159.021 379.217 159.087 379.2 159.168 379.226C159.26 379.26 159.36 379.295 159.455 379.324C159.469 379.274 159.474 379.221 159.462 379.165L160.014 379.44C160.031 379.441 160.045 379.448 160.053 379.447C160.129 379.455 160.182 379.491 160.22 379.545C163.532 381.213 166.765 383.326 169.558 385.922L170.041 386.388L170.172 386.543C169.529 386.305 168.715 386.305 168.224 386.29C166.891 386.248 165.505 386.314 164.203 386.635C164.003 386.681 163.811 386.736 163.613 386.793C163.579 386.792 163.548 386.797 163.512 386.817L162.915 386.995C162.963 386.911 162.917 386.78 162.812 386.816C161.592 387.264 159.907 386.833 158.638 386.745C157.173 386.631 155.706 386.491 154.241 386.483C152.014 386.469 149.592 386.522 147.745 388.127C146.411 389.289 145.386 391.86 145.572 393.859C145.773 395.989 147.08 397.623 148.327 399.065C150.531 401.611 154.614 404.437 157.317 401.423C159.066 399.477 160.421 396.778 161.446 394.214C161.996 392.824 162.42 391.387 162.922 389.978C163.193 389.205 163.331 387.934 163.814 387.326C163.854 387.273 163.869 387.219 163.874 387.164C164.801 386.933 165.737 386.766 166.698 386.704C168.06 386.61 169.601 386.457 170.87 387.235C174.461 390.995 177.25 395.717 179.128 400.968C180.021 403.452 180.822 406.018 181.458 408.611C181.731 409.687 181.943 410.778 182.093 411.878C181.372 417.763 180.342 423.606 179.008 429.382C178.8 428.3 178.399 427.193 178.191 426.377C177.589 424.015 176.918 421.826 175.905 419.68C175.799 419.287 175.634 418.897 175.458 418.528C175.494 418.442 175.498 418.338 175.429 418.242C175.393 418.192 175.356 418.142 175.319 418.093C175.044 415.276 174.289 412.472 173.529 409.794C172.884 407.507 172.268 405.139 171.462 402.92C170.325 399.795 168.253 397.112 165.236 398.746C162.328 400.322 161.873 404.497 163.952 407.386C166.882 411.45 171.192 413.721 174.328 417.554L174.516 417.914C175.747 420.269 176.934 422.739 177.51 425.44C177.699 426.33 177.96 427.201 178.179 428.09C178.347 428.761 178.69 429.83 178.688 430.679C176.69 438.807 173.377 446.47 169.568 453.53C168.315 455.855 167.003 458.291 165.539 460.542C166.095 457.865 165.128 454.36 164.8 451.879C164.64 450.66 164.447 449.442 164.236 448.233C164.248 448.221 164.256 448.202 164.249 448.172C164.234 448.069 164.199 447.97 164.174 447.865C163.901 446.334 163.577 444.812 163.204 443.303C163.219 443.285 163.228 443.259 163.212 443.227C163.183 443.158 163.162 443.09 163.135 443.025C162.868 441.992 162.583 440.972 162.258 439.961C161.589 436.192 162.079 432.1 161.888 428.326C161.897 428.28 161.905 428.24 161.916 428.19C161.981 428.123 162.015 428.014 161.972 427.898C162.604 424.733 163.713 421.628 163.905 418.363C164.086 415.242 163.761 411.425 162.475 408.606C160.26 403.745 154.748 402.855 150.789 404.725C146.153 406.915 149.355 412.72 151.74 415.606C153.83 418.137 156.346 420.031 158.516 422.451C159.874 423.974 160.695 425.773 161.477 427.745C161.526 428.49 161.557 429.237 161.568 429.984C161.591 432.602 161.453 435.25 161.723 437.86L161.802 438.571L161.243 437.041C159.395 432.295 156.887 427.897 153.558 424.445C153.226 424.1 152.886 423.769 152.543 423.446C150.748 419.96 148.734 416.619 146.746 413.284C145.243 410.76 143.824 408.123 141.701 406.256C139.823 404.599 137.286 403.22 134.975 404.216C132.624 405.23 131.112 407.616 130.115 410.262C129.267 412.511 128.504 415.685 129.076 418.187C129.749 421.117 131.94 421.883 134.222 422.308C137.045 422.829 139.885 422.766 142.727 422.946C145.905 423.143 149.135 423.444 152.301 423.902L152.915 424.497C156.093 427.797 158.643 431.824 160.471 436.349C161.773 439.568 162.745 442.94 163.458 446.387C162.951 445.657 162.304 445.007 161.769 444.472C160.653 443.349 159.512 442.216 158.34 441.177C156.578 439.615 154.598 438.414 152.554 437.403C152.526 437.343 152.487 437.289 152.419 437.258C152.258 437.194 152.091 437.143 151.929 437.094C151.859 437.058 151.783 437.029 151.709 436.998C147.336 432.035 143.582 425.376 137.372 423.907C132.337 422.716 127.384 425.326 125.97 431.469C125.291 434.49 125.496 438.469 127.131 441.095H127.117ZM153.405 438.274C154.834 438.981 156.229 439.777 157.52 440.867L158.42 441.647C156.794 440.336 155.047 439.225 153.405 438.274Z" fill="#FFCDDA"/>
<path d="M140.635 400.409C140.834 400.178 141.042 399.959 141.278 399.76C141.355 399.7 141.354 399.735 141.424 399.793L142.293 400.495C145.988 403.524 151.438 404.004 155.763 402.105C162.761 398.97 165.686 391.713 163.258 384.505C161.325 380.018 156.81 376.873 152.14 375.797C148.092 375.231 143.882 376.601 140.501 378.802C135.508 381.945 135.49 389.112 138.018 393.876C138.729 395.306 139.609 396.644 140.64 397.861C139.923 398.189 139.304 398.788 138.795 399.388C137.605 400.84 136.545 402.398 135.467 403.933C135.392 404.073 135.288 404.223 135.175 404.377L132.753 398.035C131.053 393.266 129.51 388.419 127.386 383.813C126.929 382.788 126.44 381.777 125.943 380.77C126.195 379.995 126.256 379.145 126.54 378.365C127.194 376.278 128.093 374.277 128.827 372.216C129.127 371.455 129.409 370.661 129.868 369.98C132.525 370.972 135.483 371.063 138.236 370.404C147.173 368.833 150.298 358.474 148.09 350.601C145.441 339.946 138.616 336.425 128.821 341.814C125.085 343.717 122.81 347.659 122.311 351.752C122.024 354.319 122.513 356.917 123.118 359.402C123.914 363.002 125.99 366.094 128.647 368.595C127.405 369.927 125.493 374.96 124.724 378.298C123.859 376.532 123.03 374.753 122.366 372.899C121.152 369.506 120.573 365.933 119.844 362.416C117.636 353.644 120.09 344.686 120.021 335.806C120.107 335.666 120.162 335.508 120.134 335.323C120.557 333.824 121.77 332.673 122.764 331.519C123.51 330.655 124.358 329.863 125.159 329.053C125.627 328.578 125.906 327.752 126.449 327.374C127.378 326.727 127.579 327.333 128.623 327.586C130.867 328.13 133.931 326.802 135.691 325.473C139.128 322.572 141.309 316.871 138.649 312.81C137.23 310.88 134.8 309.709 132.435 309.564C129.864 309.574 127.612 311.337 126.129 313.319C124.344 315.708 124.411 318.025 124.416 320.864C124.418 321.689 124.301 322.612 124.422 323.426C124.583 324.523 125.29 324.733 125.704 325.73C125.985 326.401 123.551 328.135 123.084 328.606C122.473 329.222 119.775 331.478 119.842 332.373C119.685 330.243 119.436 328.121 119.075 326.018C118.109 320.69 117.25 315.306 115.556 310.15C114.368 306.502 112.617 303.083 110.965 299.631C111.082 299.614 111.199 299.6 111.305 299.533L111.46 299.674C111.495 299.698 111.625 299.743 111.649 299.769C112.377 301.365 113.906 302.455 115.517 303.045C121.916 305.908 129.859 300.868 130.888 294.127C131.238 291.543 130.537 288.869 129.18 286.664C124.884 280.301 118.308 279.595 113.011 285.265C111.5 286.882 110.722 289.19 110.404 291.339C110.217 292.605 109.651 296.447 110.581 297.482C110.473 297.665 110.329 297.789 110.189 297.951C108.6 294.494 107.108 290.992 105.909 287.38L105.451 286.066C105.537 285.907 105.61 285.734 105.665 285.559C106.834 282.811 107.84 279.999 108.628 277.116C108.836 276.385 109.044 275.648 109.326 274.95C109.347 274.938 109.469 274.976 109.496 274.981C113.859 275.716 118.019 272.987 120.088 269.249C121.857 266.373 122.747 262.563 121.409 259.349C119.98 256.223 116.705 253.831 113.262 253.603C111.01 253.52 108.869 254.628 107.364 256.266C104.831 258.697 102.542 261.867 102.526 265.519C102.404 269.225 105.477 271.734 107.995 273.965C106.814 276.865 106.21 279.994 105.104 282.935L104.734 284.003L102.631 277.962C101.572 274.896 100.592 271.705 100.733 268.424C101.097 259.697 104.012 251.305 107.507 243.379C107.904 242.406 108.356 241.462 108.81 240.52C109.128 240.45 109.434 240.241 109.725 240.086C110.75 239.539 111.814 239.071 112.874 238.597C115.39 237.566 118.019 236.822 120.559 235.846C122.339 235.235 124.136 234.388 126.043 234.345C127.094 234.571 127.72 235.651 128.581 236.232C130.747 237.964 133.173 239.435 135.88 240.115C144.986 243.001 150.931 232.748 146.957 225.025C145.373 221.547 143.674 219.481 139.591 219.629C134.582 220.028 129.739 222.92 127.139 227.254C126.303 228.751 125.398 230.388 125.538 232.158C125.546 232.295 125.564 232.431 125.589 232.567C125.608 232.613 125.582 232.623 125.514 232.599C124.54 232.634 123.596 232.882 122.666 233.15C118.451 234.524 114.194 235.866 110.212 237.84C111.869 234.859 113.777 232.02 115.937 229.367C119.857 224.202 124.554 219.708 129.631 215.699C133.4 212.627 137.366 209.802 141.55 207.326C144.274 205.795 146.962 203.919 150.061 203.281C150.133 203.264 150.203 203.269 150.272 203.276C150.324 203.421 150.389 203.561 150.504 203.678C150.702 206.871 151.859 210.785 155.058 212.213C157.727 213.133 160.769 213.297 163.44 212.296C165.892 211.156 167.328 206.859 167.436 204.302C167.662 201.032 165.027 198.675 162.59 196.944C159.194 194.558 154.496 196.233 152.071 199.259C151.658 199.741 150.939 200.659 150.518 201.577C146.628 201.037 134.501 209.201 131.35 211.559C131.379 210.568 131.118 209.565 130.673 208.686C130.628 208.594 130.623 208.627 130.702 208.577C131.9 207.828 133.028 206.97 134.071 206.015C136.623 203.783 140.798 198.796 140.582 195.282C140.193 192.474 137.49 190.734 135.015 189.857C131.195 188.776 126.929 190.835 124.867 194.132C121.622 199.438 123.734 202.596 127.221 206.869C128.315 208.339 129.737 209.867 129.658 211.827C129.687 212.218 129.488 212.651 129.429 213.041C126.361 215.42 123.34 217.868 120.571 220.588C120.935 220.04 121.264 219.469 121.558 218.88C123.005 215.803 123.911 211.697 122.738 208.417C121.792 206.002 120.16 203.821 118.15 202.193C116.458 200.944 114.239 200.494 112.169 200.575C107.727 201.177 103.83 205.289 103.592 209.8C103.489 213.357 105.316 217.138 108.406 218.979C109.943 219.895 111.596 220.504 113.268 221.121C114.846 221.704 116.523 222.85 118.193 222.775C116.611 224.552 115.109 226.519 113.625 228.399C112.776 229.469 111.958 230.564 111.173 231.682C110.633 232.453 108.994 234.176 108.939 235.113C109.173 230.997 107.063 226.864 103.231 225.059C101.138 223.928 98.7911 222.996 96.3749 223.141C93.0696 223.245 90.3904 225.863 89.3774 228.889C88.2321 232.529 91.221 236.039 94.1789 237.785C97.7988 239.608 102 240.146 106.01 240.227C105.931 240.469 105.79 240.693 105.74 240.943C105.725 241.069 105.743 241.196 105.792 241.312C101.821 249.922 98.822 259.114 98.5245 268.619C98.5073 270.956 98.9252 273.22 99.5426 275.443L98.5349 274.28C98.1565 273.356 97.847 272.402 97.6097 271.438C96.8324 268.393 95.4119 265.571 94.5004 262.571C92.9372 257.03 90.9355 251.633 89.2983 246.118C89.2502 245.99 89.2072 245.858 89.1504 245.735C89.4273 244.593 89.1332 242.706 89.1006 242.033C88.6672 237.51 86.0997 232.867 81.6697 231.259C79.4307 230.298 76.9492 230.036 74.5743 230.598C72.9681 230.81 71.4358 231.542 70.3919 232.806C68.6396 235.042 67.8021 237.976 67.8812 240.798C68.1512 242.768 69.2311 244.585 70.7015 245.902C73.5699 248.476 77.6319 249.202 81.3722 248.89C83.7145 248.737 86.184 248.318 87.9037 246.586C87.9432 246.599 87.9639 246.582 88 246.591L88.0309 246.701C88.9716 251.031 90.4385 255.209 91.7008 259.449C92.5383 262.561 93.594 265.611 94.8599 268.574C95.307 269.683 95.6458 270.834 95.9966 271.978C95.6509 270.848 91.7317 269.494 90.6999 269.076C89.6113 268.636 88.4299 268.612 87.8607 267.506C87.3448 266.501 87.5408 264.586 87.0472 263.394C85.7265 260.201 83.0971 257.684 80.2561 255.82C68.4126 247.753 55.3445 259.161 67.7488 269.687C71.2638 272.619 76.0893 273.532 80.5537 273.063C83.1366 272.852 85.3155 271.224 86.8684 269.192C90.3474 270.391 93.7472 272.062 96.5297 274.5C96.7343 274.674 96.9166 274.869 97.1023 275.062C98.1892 277.422 99.663 279.626 101.548 281.422L103.089 285.814C103.488 287.028 103.94 288.225 104.375 289.428C102.57 288.141 100.727 286.91 98.8461 285.738C98.2494 285.365 97.6303 285.015 97.0662 284.598C98.0551 282.855 93.8263 279.781 92.669 278.935C90.9053 277.6 88.8806 276.653 86.7274 276.157C84.0928 275.719 81.5132 277.009 79.4015 278.467C74.2785 281.857 76.9182 286.906 81.4823 289.162C84.3215 290.602 87.5597 291.632 90.7652 291.054C93.288 290.594 95.9587 288.879 96.5624 286.342C99.1849 288.143 101.873 289.845 104.537 291.586C104.781 291.756 105.063 291.986 105.355 292.107C106.062 293.921 106.805 295.72 107.613 297.492C109.249 301.282 111.269 304.903 112.75 308.758C113.964 311.894 114.753 315.156 115.417 318.447C115.149 318.12 114.901 317.776 114.616 317.464C112.305 315.158 109.89 312.967 107.051 311.339C106.967 311.292 106.881 311.24 106.826 311.163C106.755 311.064 106.743 310.937 106.734 310.816C106.451 307.252 104.777 304.285 102.232 301.768C100.401 299.959 98.5245 298.187 96.4729 296.624C93.3224 294.223 88.8994 294.66 85.5735 296.476C82.5124 297.985 80.2132 300.29 81.2089 303.945C82.5279 309.048 87.1487 312.396 91.5305 314.823C94.5847 316.443 98.3457 317.04 101.641 315.824C103.62 315.123 105.164 313.905 106.029 312.35C109.01 314.79 112.122 317.192 114.618 320.159C115.218 320.826 115.625 321.656 116.169 322.36L116.53 324.364C117.3 328.404 117.851 332.499 117.811 336.62C117.656 342.744 116.75 348.833 116.87 354.971C116.874 355.159 116.889 355.347 116.894 355.535C115.823 353.639 114.803 351.717 113.644 349.873C111.916 347.212 110.322 344.466 108.475 341.882C106.812 339.42 105.513 336.675 103.369 334.573C99.8573 330.457 95.3156 329.505 90.7394 327.976C91.2244 327.331 90.8615 325.817 90.8409 325.121C90.3302 319.306 86.2338 314.578 81.3172 311.792C79.018 310.38 76.631 308.875 73.8778 308.646C66.5054 308.623 59.6077 314.366 58.3368 321.659C57.3308 326.714 60.1116 331.952 64.103 334.947C68.3352 337.597 74.9388 337.988 79.5511 336.146C83.3946 334.942 86.4608 332.285 89.1195 329.334C92.9768 330.842 97.35 331.354 100.471 334.273C103.861 337.096 105.608 341.198 108.124 344.721L113.405 353.023C114.867 355.416 116.268 358.069 117.276 360.689C118.255 363.232 118.587 366.283 119.118 368.976C119.916 372.812 121.446 376.378 123.063 379.914L120.303 378.819C118.643 378.16 116.987 377.494 115.293 376.928C115.304 376.733 115.259 376.533 115.128 376.371C114.98 376.214 114.796 376.138 114.604 376.087C114.06 373.446 112.635 371.075 110.929 369.019C107.094 363.887 100.473 359.649 93.9106 361.672C89.6698 362.97 86.0034 366.188 84.0859 370.185C81.539 375.966 86.0326 382.217 91.276 384.555C93.969 385.885 96.9424 386.859 99.9794 386.523C104.583 386.159 109.135 384.282 112.126 380.668C112.54 380.123 113.665 379.047 114.313 378.051C114.593 378.198 114.92 378.291 115.182 378.434C117.099 379.488 119.299 380.266 121.34 381.046C124.864 382.393 126.191 386.623 127.269 389.873C129.087 395.043 130.714 400.281 132.852 405.332C135.003 410.417 136.153 415.843 136.908 421.297C136.946 421.571 136.998 421.844 137.036 422.116C135.734 420.959 134.293 419.962 132.723 419.198C130.549 417.987 128.019 417.255 126.195 415.504C125.352 414.625 124.831 413.514 124.339 412.413C123.371 410.305 122.508 408.146 121.534 406.043C119.311 401.468 115.57 397.218 110.576 395.734C103.493 393.533 98.0482 399.85 96.3629 406.136C94.583 412.02 99.1488 417.433 104.033 420.093C108.067 422.417 112.946 422.52 117.4 421.551C120.449 420.878 123.214 419.296 125.894 417.763C127.565 418.92 129.453 419.705 131.261 420.621C133.624 421.723 135.75 423.277 137.519 425.197C138.22 429.327 139.022 433.448 139.165 437.636C139.294 441.324 139.079 445.018 138.707 448.687L138.511 450.444C138.372 451.053 138.313 451.824 138.944 452.175C139.086 452.252 139.242 452.296 139.403 452.303C139.563 452.311 139.723 452.282 139.871 452.219C140.019 452.156 140.151 452.061 140.256 451.939C140.362 451.818 140.439 451.674 140.482 451.519C140.578 451.145 140.613 450.734 140.666 450.348C140.938 448.473 141.159 446.587 141.28 444.697C141.448 442.075 141.505 439.449 141.41 436.826C141.14 431.523 140.047 426.412 139.297 421.173C138.705 417.041 138.038 412.908 136.781 408.922C136.533 408.125 136.266 407.334 135.98 406.55C136.052 406.434 136.126 406.319 136.207 406.208C137.72 404.304 139.147 402.334 140.63 400.409H140.635Z" fill="#FF8BAA"/>
<path d="M327.407 836.712C453.227 842.896 576.279 813.386 688.684 762.347C801.089 711.308 902.641 639.532 989.616 549.113C1060.55 475.35 1126.74 385.16 1155.29 276.641C1166.34 234.607 1171.24 188.928 1164.17 143.496C1159.84 115.574 1150.97 88.3257 1141.06 61.8297C1132.13 37.9505 1121.72 14.6803 1107.75 -6.35262C1030.72 -122.499 890.422 -149.631 779.692 -131.027C713.088 -119.844 646.383 -98.0588 588.217 -62.8584C522.917 -23.3508 466.799 41.5247 462.651 132.481C460.576 177.886 474.758 223.24 493.243 265.204C507.298 297.123 539.426 334.961 567.249 303.707C579.378 290.075 581.82 269.96 577.565 250.277C572.561 227.005 563.545 202.512 553.087 181.179C534.642 143.569 501.297 117.052 466.784 102.98C426.385 86.5076 384.004 86.8543 344.152 94.6513C304.521 102.374 265.156 115.569 229.425 134.561C166.218 168.188 113.985 229.377 119.213 317.052C120.369 336.548 125.003 355.52 131.064 374.248C138.144 396.185 145.972 419.038 157.516 438.96C177.437 473.37 208.636 487.794 238.478 507.42C246.029 512.376 253.436 517.787 260.153 524.244C263.897 527.852 267.4 531.775 270.561 536.074C270.511 536.003 274.549 542.57 274.975 542.661C272.879 542.227 266.762 508.118 269.84 528.572C273.154 550.546 269.056 572.585 261.661 591.767C246.076 632.26 214.06 657.667 184.316 683.449C154.142 709.638 127.523 738.275 111.767 778.709C98.3532 813.117 92.6558 852.313 95.2887 891.456C98.3772 937.464 113.37 983.915 132.279 1026.11C148.878 1063.15 171.912 1096.52 200.767 1122.68C214.497 1135.14 229.35 1145.86 244.987 1154.49C261.465 1163.56 277.758 1167.78 295.146 1172.09C296.576 1172.46 289.832 1149.3 289.211 1147.59C287.675 1143.27 283.252 1126.12 278.353 1124.91C243.599 1116.27 207.518 1093.55 179.57 1067.15C166.311 1054.61 154.159 1040.51 143.476 1025.11C138.3 1017.64 133.502 1009.9 129.162 1001.83C126.967 997.765 124.952 993.635 122.971 989.466C122.322 988.111 121.762 986.726 121.18 985.348C121.325 985.709 122.828 990.968 122.125 987.741C105.249 910.773 116.747 832.175 161.502 776.716C207.121 720.214 286.707 688.241 289.391 597.484C289.988 577.315 284.389 557.967 277.71 538.718C271.03 519.469 263.627 497.96 250.297 482.1C227.178 454.552 194.204 444.737 167.903 422.619C161.349 417.097 155.349 410.865 149.996 403.835C144.642 396.806 141.074 386.675 135.623 379.94C135.741 380.075 143.392 406.771 141.375 395.22C140.997 393.047 140.379 390.896 139.958 388.738C139.122 384.446 138.443 380.104 137.922 375.795C136.749 366.115 136.305 356.396 136.618 346.801C137.838 309.659 149.721 275.847 169.618 248.526C214.44 186.961 290.265 158.226 359.524 144.117C428.784 130.009 517.126 140.662 563.29 217.559C563.901 218.577 565.715 222.919 566.618 223.402C564.49 222.281 560.542 195.947 561.295 209.638C561.6 215.155 562.36 220.402 561.799 225.917C560.864 235.049 557.656 243.515 552.759 250.393C543.624 263.229 528.884 269.468 513.752 263.177C505.84 259.884 498.989 253.617 493.341 246.365C490.683 242.975 488.251 239.306 486.077 235.522C485.088 233.814 484.254 231.677 483.159 230.093C478.854 223.761 485.916 243.493 485.329 236.615C484.418 226.528 481.305 216.362 480.514 206.119C479.587 194.581 479.64 183.094 480.559 171.755C493.756 10.7922 652.881 -53.0777 774.043 -78.6939C882.426 -101.607 1019.13 -86.691 1105.72 17.0867C1119.03 33.0412 1131.01 50.7794 1140.21 69.97C1141.09 71.8002 1144.35 80.4045 1143.08 76.0558C1142.16 72.987 1138.81 62.054 1141.11 70.9515C1143.55 80.439 1145.51 89.9714 1146.85 99.6262C1152.82 142.632 1148.13 185.448 1137.74 225.249C1111.81 324.801 1053.79 409.115 990.707 479.321C913.305 565.49 821.545 635.301 722.806 688.377C621.039 743.108 510.404 781.883 394.606 792.082C367.351 794.473 339.896 795.155 312.27 794.061C313.574 794.12 320.482 836.317 327.438 836.669L327.404 836.71L327.407 836.712Z" fill="#FFCDDA"/>
<mask id="mask1_328_495" style="mask-type:luminance" maskUnits="userSpaceOnUse" x="45" y="184" width="129" height="93">
<path d="M45.791 196.236L165.612 184.624L173.385 265.324L53.5637 276.936L45.791 196.236Z" fill="white"/>
</mask>
<g mask="url(#mask1_328_495)">
<path d="M140.809 400.59C141.008 400.355 141.218 400.136 141.455 399.938C141.533 399.876 141.531 399.91 141.602 399.969L142.473 400.676C146.188 403.729 151.665 404.212 156.011 402.301C163.043 399.144 165.982 391.837 163.54 384.575C161.596 380.056 157.06 376.888 152.363 375.803C148.295 375.232 144.064 376.611 140.666 378.827C135.65 381.991 135.632 389.21 138.172 394.009C138.89 395.436 139.775 396.817 140.809 398.023C140.088 398.353 139.466 398.956 138.955 399.56C137.758 401.025 136.695 402.591 135.612 404.138C135.524 404.294 135.426 404.443 135.318 404.585L132.883 398.197C131.173 393.393 129.622 388.51 127.486 383.871C127.027 382.838 126.535 381.82 126.035 380.806C126.288 380.026 126.348 379.169 126.635 378.386C127.29 376.283 128.195 374.266 128.932 372.191C129.232 371.425 129.515 370.627 129.976 369.938C132.647 370.939 135.62 371.03 138.386 370.368C147.368 368.788 150.506 358.355 148.284 350.425C145.62 339.692 138.761 336.146 128.915 341.571C125.161 343.487 122.876 347.457 122.375 351.579C122.088 354.163 122.578 356.78 123.187 359.285C123.988 362.911 126.076 366.024 128.745 368.543C127.498 369.885 125.576 374.955 124.805 378.315C123.937 376.538 123.101 374.744 122.434 372.878C121.213 369.461 120.63 365.862 119.897 362.319C117.675 353.484 120.141 344.462 120.069 335.518C120.155 335.376 120.21 335.216 120.183 335.031C120.607 333.522 121.825 332.363 122.826 331.2C123.576 330.331 124.427 329.534 125.233 328.716C125.705 328.238 125.981 327.407 126.528 327.026C127.462 326.375 127.663 326.986 128.712 327.24C130.969 327.788 134.049 326.451 135.816 325.113C139.27 322.192 141.462 316.45 138.785 312.36C137.359 310.416 134.915 309.236 132.54 309.087C129.957 309.099 127.693 310.873 126.203 312.87C124.41 315.277 124.478 317.609 124.484 320.471C124.485 321.299 124.368 322.23 124.489 323.05C124.652 324.154 125.362 324.366 125.779 325.37C126.061 326.048 123.615 327.792 123.144 328.268C122.53 328.887 119.82 331.159 119.887 332.059C119.729 329.915 119.479 327.778 119.115 325.659C118.143 320.293 117.28 314.868 115.576 309.676C114.38 306.001 112.621 302.557 110.958 299.081C111.075 299.063 111.194 299.05 111.3 298.981L111.457 299.124C111.491 299.15 111.624 299.194 111.648 299.22C112.379 300.828 113.916 301.925 115.536 302.519C121.968 305.406 129.951 300.33 130.981 293.54C131.333 290.939 130.626 288.246 129.263 286.024C124.944 279.614 118.334 278.902 113.013 284.611C111.495 286.24 110.712 288.563 110.394 290.728C110.207 292.005 109.639 295.874 110.573 296.914C110.465 297.099 110.32 297.225 110.179 297.388C108.581 293.906 107.08 290.378 105.875 286.74L105.416 285.417C105.503 285.254 105.574 285.083 105.629 284.906C106.803 282.138 107.813 279.305 108.604 276.404C108.799 275.665 109.032 274.936 109.304 274.222C109.326 274.208 109.448 274.248 109.474 274.251C113.859 274.993 118.04 272.247 120.117 268.481C121.895 265.586 122.788 261.746 121.443 258.51C120.007 255.362 116.716 252.951 113.256 252.721C110.991 252.638 108.839 253.753 107.328 255.402C104.783 257.85 102.483 261.044 102.468 264.72C102.348 268.453 105.434 270.98 107.966 273.228C106.779 276.148 106.174 279.302 105.063 282.262L104.692 283.338L102.576 277.254C101.51 274.165 100.526 270.951 100.666 267.648C101.03 258.855 103.959 250.405 107.467 242.423C107.874 241.45 108.311 240.49 108.778 239.544C109.097 239.473 109.405 239.261 109.698 239.108C110.728 238.556 111.797 238.085 112.862 237.607C115.39 236.57 118.033 235.821 120.585 234.838C122.374 234.222 124.179 233.37 126.097 233.329C127.153 233.555 127.782 234.643 128.649 235.23C130.826 236.974 133.264 238.455 135.985 239.14C145.137 242.05 151.11 231.725 147.115 223.945C145.522 220.443 143.815 218.359 139.712 218.509C134.678 218.908 129.81 221.821 127.197 226.184C126.358 227.693 125.45 229.342 125.588 231.124C125.596 231.262 125.613 231.399 125.639 231.535C125.658 231.583 125.632 231.593 125.564 231.569C124.585 231.604 123.636 231.852 122.702 232.123C118.466 233.506 114.188 234.859 110.188 236.844C111.852 233.836 113.777 230.98 115.94 228.311C119.878 223.112 124.599 218.585 129.699 214.549C133.488 211.454 137.471 208.611 141.677 206.119C144.413 204.575 147.115 202.688 150.229 202.044C150.301 202.029 150.372 202.034 150.442 202.041C150.494 202.186 150.559 202.327 150.675 202.444C150.874 205.662 152.037 209.603 155.253 211.044C157.935 211.97 160.991 212.135 163.677 211.128C166.142 209.979 167.584 205.653 167.693 203.077C167.918 199.783 165.27 197.409 162.823 195.665C159.407 193.26 154.687 194.948 152.252 197.994C151.835 198.48 151.115 199.405 150.692 200.328C146.783 199.784 134.595 208.004 131.431 210.379C131.46 209.381 131.197 208.37 130.75 207.485C130.704 207.393 130.7 207.424 130.779 207.374C131.987 206.622 133.115 205.755 134.166 204.796C136.73 202.55 140.924 197.525 140.707 193.987C140.317 191.158 137.6 189.403 135.111 188.522C131.273 187.432 126.984 189.505 124.914 192.824C121.653 198.168 123.775 201.349 127.283 205.655C128.384 207.135 129.813 208.675 129.734 210.647C129.765 211.044 129.562 211.478 129.503 211.872C126.42 214.266 123.385 216.731 120.602 219.47C120.962 218.915 121.304 218.349 121.593 217.75C123.046 214.652 123.956 210.517 122.776 207.212C121.825 204.78 120.184 202.584 118.164 200.942C116.463 199.684 114.234 199.231 112.152 199.312C107.687 199.917 103.771 204.057 103.534 208.601C103.431 212.184 105.268 215.993 108.373 217.847C109.919 218.77 111.579 219.384 113.259 220.007C114.846 220.593 116.532 221.747 118.21 221.673C116.621 223.462 115.113 225.444 113.62 227.336C112.769 228.414 111.944 229.515 111.156 230.641C110.612 231.417 108.965 233.153 108.912 234.098C109.146 229.951 107.025 225.789 103.173 223.971C101.068 222.83 98.7104 221.892 96.2822 222.037C92.9597 222.14 90.2684 224.776 89.2503 227.824C88.1016 231.49 91.1042 235.026 94.0775 236.784C97.7147 238.623 101.938 239.164 105.969 239.249C105.888 239.492 105.747 239.718 105.699 239.97C105.684 240.096 105.702 240.224 105.751 240.341C101.761 249.011 98.75 258.269 98.4542 267.841C98.437 270.197 98.8583 272.476 99.4791 274.715L98.4662 273.545C98.0862 272.612 97.7749 271.653 97.5359 270.682C96.7534 267.613 95.326 264.772 94.4077 261.75C92.8359 256.17 90.8221 250.732 89.1764 245.178C89.1282 245.048 89.0835 244.916 89.0268 244.791C89.3054 243.641 89.0096 241.74 88.9769 241.064C88.5401 236.508 85.9605 231.83 81.5065 230.21C79.2554 229.242 76.7619 228.977 74.3749 229.544C72.7601 229.756 71.221 230.493 70.172 231.766C68.4127 234.017 67.57 236.972 67.6509 239.815C67.9226 241.799 69.0094 243.629 70.4867 244.955C73.3706 247.55 77.4514 248.281 81.2107 247.967C83.565 247.814 86.0465 247.393 87.7748 245.649C87.8144 245.661 87.835 245.644 87.8711 245.654C87.882 245.691 87.8923 245.727 87.9021 245.764C88.8479 250.125 90.3234 254.334 91.5926 258.605C92.4387 261.74 93.4911 264.81 94.7688 267.798C95.2177 268.914 95.5582 270.071 95.9125 271.224C95.5651 270.087 91.6252 268.721 90.59 268.301C89.4962 267.858 88.3079 267.832 87.737 266.72C87.2176 265.705 87.4137 263.778 86.9184 262.576C85.5908 259.361 82.9476 256.825 80.0929 254.947C68.1891 246.82 55.0575 258.307 67.5253 268.912C71.0576 271.865 75.9072 272.786 80.3956 272.314C82.9906 272.103 85.1815 270.463 86.7413 268.417C90.2374 269.625 93.6545 271.31 96.4524 273.765C96.6571 273.94 96.8411 274.137 97.0285 274.33C98.1206 276.707 99.6029 278.929 101.498 280.739C102.038 282.214 102.578 283.685 103.049 285.162C103.45 286.386 103.906 287.59 104.342 288.803C102.529 287.506 100.675 286.266 98.7844 285.086C98.1842 284.71 97.5616 284.356 96.9959 283.937C97.9899 282.181 93.737 279.084 92.5762 278.231C90.8044 276.886 88.769 275.932 86.6037 275.433C83.9571 274.989 81.3638 276.29 79.2399 277.756C74.0912 281.17 76.7464 286.257 81.3345 288.529C84.1875 289.981 87.4429 291.018 90.6639 290.438C93.1988 289.974 95.8832 288.248 96.4903 285.691C99.1266 287.506 101.828 289.221 104.504 290.977C104.75 291.147 105.034 291.379 105.326 291.501C106.036 293.328 106.784 295.141 107.596 296.924C109.242 300.742 111.273 304.388 112.762 308.273C113.981 311.432 114.778 314.718 115.445 318.033C115.175 317.704 114.925 317.357 114.638 317.043C112.315 314.719 109.888 312.513 107.034 310.871C106.95 310.824 106.864 310.773 106.807 310.693C106.736 310.595 106.724 310.467 106.716 310.345C106.428 306.755 104.748 303.767 102.189 301.232C100.349 299.408 98.4611 297.623 96.4008 296.05C93.2349 293.63 88.7877 294.068 85.4463 295.898C82.3698 297.416 80.0602 299.736 81.0611 303.419C82.387 308.56 87.0319 311.932 91.4378 314.378C94.5075 316.01 98.2891 316.612 101.598 315.387C103.587 314.683 105.139 313.455 106.007 311.89C109.003 314.347 112.131 316.767 114.64 319.756C115.242 320.429 115.655 321.264 116.198 321.973L116.561 323.993C117.337 328.062 117.89 332.187 117.852 336.337C117.698 342.506 116.79 348.638 116.91 354.819C116.913 355.009 116.929 355.197 116.934 355.388C115.856 353.479 114.833 351.541 113.667 349.685C111.93 347.003 110.327 344.238 108.47 341.635C106.798 339.154 105.493 336.389 103.336 334.271C99.8076 330.125 95.2418 329.165 90.6416 327.624C91.1282 326.976 90.7637 325.451 90.743 324.749C90.2288 318.894 86.1102 314.13 81.1694 311.323C78.8582 309.898 76.4592 308.384 73.6922 308.152C66.2837 308.128 59.3516 313.91 58.0756 321.255C57.0661 326.346 59.8606 331.623 63.8744 334.64C68.1289 337.308 74.7653 337.705 79.3999 335.852C83.2623 334.64 86.344 331.964 89.0147 328.992C92.8927 330.512 97.2865 331.029 100.425 333.969C103.832 336.813 105.589 340.946 108.119 344.493L113.429 352.858C114.898 355.267 116.308 357.939 117.321 360.58C118.305 363.14 118.638 366.212 119.173 368.926C119.975 372.79 121.514 376.381 123.141 379.943L120.367 378.839C118.699 378.175 117.034 377.506 115.331 376.935C115.348 376.733 115.288 376.533 115.165 376.373C115.015 376.216 114.831 376.138 114.637 376.086C114.09 373.426 112.657 371.039 110.941 368.967C107.085 363.797 100.43 359.528 93.8368 361.565C89.5753 362.869 85.8917 366.111 83.9657 370.137C81.4068 375.959 85.9244 382.255 91.1953 384.61C93.9021 385.952 96.891 386.933 99.9434 386.595C104.571 386.229 109.144 384.339 112.15 380.701C112.566 380.152 113.696 379.067 114.348 378.067C114.628 378.213 114.958 378.308 115.221 378.451C117.149 379.512 119.359 380.297 121.41 381.084C124.953 382.441 126.288 386.702 127.371 389.976C129.199 395.182 130.834 400.459 132.984 405.546C135.147 410.669 136.305 416.134 137.065 421.628C137.103 421.902 137.154 422.177 137.194 422.453C135.885 421.287 134.437 420.283 132.86 419.511C130.676 418.292 128.133 417.555 126.298 415.791C125.45 414.906 124.927 413.786 124.432 412.677C123.459 410.554 122.592 408.378 121.612 406.26C119.376 401.653 115.617 397.369 110.597 395.876C103.477 393.655 98.0071 400.017 96.3149 406.35C94.5264 412.273 99.1163 417.728 104.026 420.409C108.081 422.749 112.984 422.855 117.46 421.878C120.525 421.202 123.302 419.608 125.997 418.064C127.679 419.232 129.576 420.022 131.392 420.945C133.768 422.056 135.904 423.622 137.681 425.556C138.387 429.715 139.194 433.865 139.338 438.085C139.467 441.799 139.254 445.519 138.881 449.214L138.685 450.984C138.544 451.597 138.487 452.374 139.12 452.728C139.698 453.077 140.515 452.723 140.664 452.067C140.761 451.69 140.795 451.277 140.848 450.889C141.122 448.999 141.344 447.101 141.464 445.197C141.632 442.556 141.689 439.911 141.595 437.269C141.321 431.928 140.221 426.779 139.467 421.502C138.872 417.341 138.2 413.179 136.936 409.163C136.687 408.36 136.419 407.564 136.131 406.774C136.205 406.657 136.279 406.541 136.36 406.429C137.88 404.513 139.314 402.529 140.804 400.59H140.809Z" fill="#FF8BAA"/>
</g>
<path fill-rule="evenodd" clip-rule="evenodd" d="M257.627 176.374C261.102 177.77 264.746 178.681 268.459 179.148C271.116 179.435 264.253 184.791 263.577 185.293C262.199 186.272 260.769 187.216 259.204 187.861C257.276 188.606 255.216 188.984 253.181 189.31C251.782 189.519 250.365 189.546 248.956 189.446C246.493 189.352 244.036 188.953 241.793 187.884L240.034 187.052C237.919 186.072 235.79 185.084 234.02 183.55L233.764 183.331L233.591 183.18L232.676 183.871C231.895 184.44 231.037 184.873 230.177 185.306L228.11 186.445C225.179 188.079 223.104 190.728 221.246 193.473L220.579 195.182L219.878 196.976C219.121 198.858 218.266 200.712 217.093 202.374L216.908 202.629C216.701 202.912 216.497 203.195 216.247 203.434C216.22 203.455 216.191 203.467 216.16 203.481C216.142 203.486 216.127 203.493 216.11 203.502C214.395 206.676 212.419 209.729 209.936 212.354L204.823 217.222L201.802 220.029C198.342 223.251 194.366 225.891 190.082 227.874L188.67 228.587L184.046 230.922L188.318 226.415L193.927 223.308C197.272 221.209 200.199 218.539 203.098 215.875L204.763 214.381C207.047 212.348 209.334 210.31 211.171 207.849C212.559 206.075 213.8 204.193 215.023 202.301C215.054 202.232 215.092 202.165 215.13 202.098L215.173 201.818C215.241 201.364 215.31 200.909 215.461 200.474C215.832 199.473 216.051 198.421 216.11 197.354L216.13 196.181C216.17 194.33 216.209 192.463 215.843 190.649L215.009 186.761L214.794 185.639C214.641 184.877 214.431 184.127 214.222 183.378L213.546 180.549C213.384 179.519 213.298 178.475 213.334 177.434C213.238 177.37 213.148 177.297 213.076 177.218C212.608 176.771 212.154 176.298 211.764 175.783C210.571 174.173 209.441 172.412 209.174 170.383C209.018 169.229 209.061 168.051 209.114 166.889C209.188 165.143 209.348 163.385 209.931 161.727C211.166 157.706 213.996 154.491 216.774 151.441L217.903 150.253C219.881 148.178 221.864 146.097 223.506 143.739L223.615 143.589C223.857 143.26 224.099 142.928 224.394 142.645C225.032 142.125 225.541 142.468 225.487 143.289C225.503 143.87 225.47 144.45 225.439 145.031L225.393 146.766C225.556 147.974 226.026 149.097 226.495 150.22L227.429 152.807L227.608 153.442C228.012 154.865 228.421 156.307 228.478 157.786C228.437 159.807 228.383 161.986 227.162 163.689C224.971 166.739 222.113 169.231 219.142 171.491L217.694 172.669L214.23 175.657C214.235 175.667 214.242 175.676 214.249 175.686C214.256 175.696 214.275 175.722 214.278 175.745C214.283 175.815 214.256 175.878 214.228 175.94C214.201 176.002 214.17 176.074 214.18 176.154C214.149 176.97 214.211 177.792 214.309 178.603C214.466 180.033 214.86 181.41 215.253 182.786L216.136 186.474L216.598 189.077L217.018 191.399C217.16 192.481 217.173 193.573 217.171 194.661L217.169 195.06L216.978 198.777L217.812 196.923L219.152 193.531L221.651 187.54L224.099 183.111L225.081 181.41C226.672 178.32 228.624 175.433 230.887 172.797L235.759 167.492L236.115 167.192L236.258 167.075L236.337 166.908L236.449 166.671L237.517 164.624L238.744 162.248C239.219 161.258 239.64 160.213 239.701 159.104C239.955 157.187 239.374 155.529 238.634 153.803C238.129 152.518 237.732 151.193 237.486 149.832L237.391 149.356C237.135 148.083 236.877 146.799 236.885 145.495C237.014 142.882 238.105 140.324 239.768 138.324C242.323 135.209 244.812 134.05 248.549 132.828L250.406 132.244C251.735 131.845 253.068 131.447 254.297 130.796C254.412 130.739 254.522 130.673 254.626 130.598C254.97 130.367 255.346 130.112 255.587 130.565C255.659 130.703 255.599 130.86 255.455 131.022C255.31 131.764 255.249 132.52 255.273 133.275L255.328 133.826C255.517 135.725 255.708 137.634 255.451 139.537C255.329 140.853 255.187 142.18 254.71 143.423C254.325 144.389 253.914 145.369 253.303 146.216C252.057 147.816 250.604 149.243 248.982 150.458C248.206 151.074 247.383 151.631 246.559 152.188C245.152 153.14 243.744 154.093 242.576 155.335C241.892 156.116 241.195 156.925 240.739 157.867L240.684 157.996C240.636 158.105 240.588 158.214 240.574 158.333C240.573 158.355 240.562 158.374 240.55 158.391C240.521 160.83 239.52 162.693 238.337 164.896L238.273 165.017L237.986 165.574L237.807 165.921L238.954 165.167L239.582 164.758L246.824 160.058L249.169 158.605L252.724 156.487L252.834 156.43L252.999 156.207L254.853 153.713L257.138 150.584C258.169 149.118 258.992 147.527 259.794 145.928C260.595 144.329 261.314 142.668 261.756 140.931C262.041 139.784 261.985 138.592 261.923 137.422L261.917 137.35C261.874 136.61 261.83 135.861 261.601 135.152C261.104 133.582 260.146 132.185 259.051 130.972C258.408 130.294 257.706 129.673 257.006 129.052L254.774 126.934L252.803 124.516L252.306 123.877C251.271 122.465 250.536 120.857 249.814 119.27C248.961 117.526 248.757 115.549 249.004 113.638C249.126 112.463 249.293 111.288 249.646 110.159L251.107 104.842C251.271 104.25 251.477 103.67 251.725 103.108L251.726 103.105C251.804 102.922 251.9 102.691 252.136 102.708C252.27 102.717 252.382 102.795 252.466 102.9C252.61 102.914 252.753 103.003 252.813 103.181L252.844 103.264C253.071 103.876 253.302 104.495 253.622 105.066C254.308 106.239 255.496 106.96 256.631 107.65L256.829 107.771C258.638 108.816 260.32 110.105 261.735 111.651C262.638 112.855 263.429 114.157 264.181 115.463C265.283 117.448 265.78 119.686 266.186 121.902C266.729 124.617 266.795 127.403 266.461 130.15C266.263 131.804 265.914 133.439 265.537 135.059C265.338 135.787 264.987 136.46 264.64 137.125L264.621 137.16C264.211 138.024 263.744 138.859 263.221 139.659C263.027 139.989 262.832 140.318 262.69 140.676C262.681 140.703 262.657 140.72 262.641 140.743C262.229 142.999 261.195 145.112 260.186 147.174L259.826 147.91C258.757 150.175 257.212 152.124 255.668 154.072L254.497 155.564L261.379 151.683L261.694 151.502C264.76 149.961 267.472 147.838 269.967 145.492C273.998 141.683 277.906 137.605 280.648 132.739L282.251 129.604C282.339 129.423 282.413 129.235 282.485 129.047L282.516 128.97C282.451 128.833 282.432 128.678 282.507 128.545C282.516 128.53 282.525 128.519 282.532 128.511C282.538 128.502 282.55 128.487 282.538 128.459C282.234 127.705 281.823 127.003 281.412 126.303L280.961 125.523C279.828 123.539 278.734 121.507 277.995 119.337C277.732 118.576 277.547 117.789 277.443 116.99C277.347 116.268 277.414 115.544 277.481 114.823L277.55 113.964C277.625 112.265 278.231 110.657 278.956 109.136C280.803 105.109 284.021 101.915 287.245 98.965L287.515 98.7132L289.268 97.1589C289.386 97.0503 289.522 96.9485 289.691 96.9502C290.255 97.0106 290.392 97.723 290.501 98.2836L290.587 98.6752L290.685 99.172L291.171 101.43C291.431 102.522 291.811 103.578 292.191 104.633L293.097 107.392C293.534 108.967 293.718 110.595 293.759 112.227C293.822 113.23 293.767 114.237 293.596 115.227C293.207 117.769 292.495 120.277 291.163 122.494C289.9 124.94 287.945 127.01 285.455 128.211C284.788 128.618 284.057 128.87 283.319 129.111C282.458 131.476 281.304 133.736 279.959 135.861C276.948 140.493 272.987 144.429 268.834 148.033C266.724 149.901 264.339 151.408 261.868 152.744L260.972 153.275L258.072 154.976C259.092 155.093 260.132 155.06 261.152 154.998C264.261 154.641 267.388 154.217 270.402 153.359C271.802 152.909 273.139 152.29 274.447 151.624L275.938 150.87C277.216 150.237 278.497 149.602 279.661 148.78L280.335 148.229L280.685 147.936C280.795 147.857 280.9 147.771 280.999 147.679L281.225 147.488L281.273 147.37L281.369 147.111L281.923 145.428C282.346 143.356 283.008 141.329 283.976 139.446L284.485 138.533C285.042 137.527 285.599 136.52 286.299 135.611L286.688 135.159C287.636 134.058 288.59 132.949 289.756 132.078C292.621 129.913 295.916 128.395 299.361 127.426L308.202 125.385L309.577 125.161L312.207 124.688C312.262 124.688 312.305 124.659 312.348 124.63C312.379 124.609 312.41 124.586 312.446 124.576C312.613 124.517 312.802 124.583 312.907 124.723C313.056 124.933 312.922 125.142 312.802 125.33L312.747 125.42L312.673 125.549L312.303 126.241C312.238 126.377 312.179 126.517 312.128 126.66L311.944 127.096C311.794 127.353 311.61 127.586 311.426 127.819L310.917 128.525C310.704 128.835 310.561 129.184 310.418 129.53L310.257 129.912L309.918 130.669L308.989 132.837C308.614 133.886 308.047 134.843 307.445 135.775L306.554 137.208L305.005 139.561C303.983 140.738 302.848 141.831 301.643 142.816C300.04 143.903 298.281 144.738 296.427 145.29L291.45 146.544L288.262 147.017L286.27 147.287L282.764 148.012C282.654 148.034 282.526 148.074 282.391 148.117C282.194 148.179 281.981 148.247 281.787 148.269L281.192 148.831L280.513 149.471C279.469 150.38 278.232 151.017 277.004 151.648L276.067 152.138L275.596 152.378L271.579 154.255C270.145 154.802 268.642 155.143 267.132 155.404C264.055 155.9 260.896 156.34 257.794 155.824C257.546 155.792 257.307 155.723 257.068 155.654L256.939 155.617L254.76 156.785C252.767 157.796 250.86 158.955 249.028 160.235L244.726 163.014L241.99 164.862L240.832 165.674L239.811 166.325C238.803 166.958 237.793 167.592 236.896 168.382L235.649 169.661C236.33 169.331 237.029 169.039 237.742 168.786C242.49 166.99 247.713 167.636 252.574 168.602L252.684 168.622L254.75 168.948C254.812 168.962 254.874 168.966 254.937 168.966L255.064 168.886C255.804 168.432 256.437 167.836 257.066 167.241L257.525 166.813C258.411 166.019 259.209 165.131 260.007 164.242C261.224 162.887 262.439 161.532 263.962 160.523C267.133 158.321 269.544 157.794 273.269 157.198L274.093 157.06L276.581 156.739L279.894 156.792L280.361 156.815C282.872 156.934 285.672 157.066 287.914 158.236C288.279 158.426 286.702 159.081 286.667 159.092C285.364 159.438 284.134 160.201 283.321 161.289C282.915 161.926 282.464 162.535 281.935 163.073L280.16 164.953L276.459 168.688C273.923 170.763 270.944 172.217 267.835 173.202C266.095 173.901 264.186 174.273 262.316 173.992C260.645 173.682 259.126 172.859 257.689 171.983L255.625 170.829L255.064 170.525C254.977 170.468 254.877 170.418 254.774 170.366C254.543 170.251 254.304 170.13 254.193 169.914C253.448 169.892 252.542 169.74 251.862 169.624L251.121 169.509C247.021 168.772 242.681 168.103 238.622 169.392C237.161 169.845 235.689 170.375 234.488 171.356L233.675 172.027L233.597 172.095L233.298 172.469L232.731 173.178L229.659 177.182C228.579 178.641 227.728 180.24 226.875 181.841L225.334 184.618C224.328 186.341 223.47 188.141 222.679 189.969C223.339 189.139 224.055 188.355 224.86 187.658C226.008 186.667 227.32 185.893 228.641 185.163L229.038 184.968C230.524 184.247 232.012 183.523 233.272 182.429C234.1 181.803 234.779 181.027 235.46 180.25L237.069 178.551C239.834 176.223 243.271 174.847 246.874 174.627C250.538 174.483 254.194 175.075 257.627 176.369V176.374Z" fill="#FF8BAA"/>
<path fill-rule="evenodd" clip-rule="evenodd" d="M205.34 244.042C205.754 244.418 206.09 244.873 206.327 245.381C206.564 245.888 206.698 246.437 206.721 246.997C206.738 247.227 206.752 247.284 206.995 247.247C209.478 247.087 211.593 249.236 211.466 251.772C211.385 253.344 210.589 254.527 209.311 255.365C208.197 256.083 206.965 256.45 205.696 256.707C203.66 257.107 201.627 257.178 199.574 256.881C199.345 256.847 199.117 256.768 198.867 256.712C198.568 256.662 198.396 256.442 198.295 256.171C198.069 255.679 197.968 255.17 197.887 254.63C197.48 252.34 197.407 250.03 197.815 247.73C198.018 246.707 198.333 245.747 198.922 244.865C200.276 242.812 202.938 242.328 204.869 243.677C205.041 243.77 205.198 243.887 205.34 244.042ZM225.6 82.7928C224.823 83.557 224.365 84.5281 224.343 85.6528C224.331 85.8736 224.319 85.9288 224.085 85.8978C221.705 85.7977 219.727 87.9022 219.904 90.3276C220.016 91.8301 220.804 92.9444 222.047 93.7207C223.129 94.3831 224.316 94.7074 225.535 94.9247C227.494 95.2628 229.442 95.287 231.401 94.9558C231.619 94.9178 231.836 94.8367 232.075 94.7798C232.359 94.7246 232.519 94.509 232.611 94.2485C232.816 93.7741 232.902 93.2842 232.966 92.7633C233.306 90.5622 233.325 88.349 232.883 86.1583C232.666 85.1836 232.345 84.2694 231.76 83.4397C230.419 81.5042 227.86 81.1006 226.042 82.434C225.875 82.5279 225.726 82.6481 225.6 82.7928Z" fill="#FFCDDA"/>
<path fill-rule="evenodd" clip-rule="evenodd" d="M160.536 141.826C159.002 141.271 157.396 141.281 155.864 141.98C155.559 142.107 155.477 142.126 155.367 141.792C153.953 138.499 149.833 137.184 146.679 139.001C144.725 140.129 143.735 141.921 143.499 144.11C143.31 146.008 143.643 147.828 144.142 149.623C144.937 152.477 146.211 155.173 147.91 157.596C148.103 157.869 148.352 158.11 148.586 158.397C148.846 158.745 149.239 158.823 149.65 158.778C150.424 158.747 151.14 158.545 151.883 158.295C155.069 157.325 158.065 155.914 160.732 153.893C161.905 152.965 162.926 151.933 163.668 150.601C165.405 147.526 164.287 143.793 161.308 142.194C161.074 142.028 160.812 141.904 160.536 141.826Z" fill="#FF8BAA"/>
<path d="M637.764 133.374C637.829 132.593 638.969 132.593 639.036 133.374L639.705 141.245C639.717 141.396 639.783 141.538 639.889 141.645C639.995 141.752 640.136 141.818 640.287 141.83L648.134 142.501C648.913 142.567 648.913 143.71 648.134 143.778L640.287 144.449C640.137 144.461 639.996 144.527 639.89 144.633C639.783 144.74 639.718 144.881 639.705 145.032L639.036 152.903C638.969 153.684 637.829 153.684 637.764 152.903L637.095 145.032C637.082 144.881 637.017 144.74 636.91 144.633C636.803 144.526 636.662 144.461 636.512 144.449L628.667 143.778C627.886 143.71 627.886 142.567 628.667 142.501L636.512 141.83C636.662 141.818 636.804 141.752 636.911 141.645C637.017 141.538 637.083 141.396 637.095 141.245L637.764 133.374ZM461.711 249.851C461.778 249.068 462.918 249.068 462.985 249.851L463.653 257.721C463.68 258.033 463.926 258.28 464.236 258.306L472.083 258.975C472.862 259.042 472.862 260.186 472.083 260.253L464.236 260.922C463.926 260.95 463.68 261.197 463.653 261.507L462.985 269.378C462.918 270.16 461.778 270.16 461.711 269.378L461.044 261.507C461.018 261.197 460.77 260.95 460.461 260.922L452.615 260.253C451.835 260.186 451.835 259.042 452.615 258.975L460.461 258.306C460.611 258.293 460.753 258.228 460.859 258.121C460.966 258.014 461.032 257.872 461.044 257.721L461.711 249.851ZM74.2965 179.906C74.3635 179.123 75.5037 179.123 75.5691 179.906L76.238 187.775C76.2502 187.926 76.3155 188.068 76.4223 188.175C76.5291 188.283 76.6705 188.348 76.821 188.36L84.668 189.031C85.447 189.097 85.447 190.241 84.668 190.308L76.821 190.979C76.6707 190.991 76.5296 191.056 76.4228 191.163C76.3161 191.27 76.2506 191.411 76.238 191.562L75.5691 199.433C75.502 200.214 74.3618 200.214 74.2965 199.433L73.6275 191.562C73.615 191.411 73.5495 191.27 73.4427 191.163C73.3359 191.056 73.1948 190.991 73.0445 190.979L65.1993 190.308C64.4202 190.241 64.4202 189.097 65.1993 189.031L73.0463 188.36C73.1968 188.348 73.3381 188.283 73.4449 188.175C73.5517 188.068 73.6171 187.926 73.6292 187.775L74.2965 179.906ZM57.3127 158.1C57.3285 157.999 57.38 157.906 57.4579 157.839C57.5358 157.772 57.635 157.736 57.7375 157.736C57.84 157.736 57.9391 157.772 58.017 157.839C58.0949 157.906 58.1464 157.999 58.1622 158.1L58.6076 163.346C58.6248 163.555 58.7882 163.719 58.9963 163.736L64.2276 164.183C64.3289 164.199 64.4212 164.25 64.4879 164.328C64.5545 164.406 64.5911 164.506 64.5911 164.609C64.5911 164.712 64.5545 164.811 64.4879 164.889C64.4212 164.967 64.3289 165.019 64.2276 165.035L58.9963 165.482C58.7899 165.499 58.6266 165.663 58.6076 165.871L58.1622 171.117C58.1464 171.219 58.0949 171.311 58.017 171.378C57.9391 171.445 57.84 171.482 57.7375 171.482C57.635 171.482 57.5358 171.445 57.4579 171.378C57.38 171.311 57.3285 171.219 57.3127 171.117L56.8673 165.871C56.8501 165.663 56.685 165.499 56.4786 165.482L51.2473 165.035C51.146 165.019 51.0537 164.967 50.9871 164.889C50.9204 164.811 50.8838 164.712 50.8838 164.609C50.8838 164.506 50.9204 164.406 50.9871 164.328C51.0537 164.25 51.146 164.199 51.2473 164.183L56.4786 163.736C56.685 163.719 56.8501 163.555 56.8673 163.346L57.3127 158.1Z" fill="#FFCDDA"/>
</g>
</svg>
