<svg width="388" height="687" viewBox="0 0 388 687" fill="none" xmlns="http://www.w3.org/2000/svg">
<path fill-rule="evenodd" clip-rule="evenodd" d="M359.024 298.047C369.043 290.184 377.922 281.001 385.611 270.861C390.972 263.523 395.077 292.843 395.406 295.687C395.949 301.41 396.295 307.228 395.534 312.934C394.451 319.879 392.061 326.589 389.562 333.134C387.796 337.612 385.468 341.832 382.779 345.81C378.312 352.901 372.96 359.461 365.997 364.247L360.557 368.014C354.075 372.578 347.544 377.167 340.019 379.771L338.938 380.153L338.195 380.407L338.677 384.277C339.026 387.545 338.842 390.808 338.655 394.077L338.493 402.1C338.321 413.508 342.595 424.126 347.52 434.263L351.42 439.135L355.511 444.251C359.767 449.68 363.775 455.35 366.673 461.629L367.109 462.61C367.591 463.699 368.076 464.782 368.358 465.924C368.373 466.041 368.358 466.147 368.346 466.262C368.332 466.321 368.326 466.379 368.322 466.444C374.755 476.89 380.387 487.901 383.897 499.679L389.54 523.013L392.668 536.684C396.275 552.353 397.287 568.55 395.846 584.539L395.543 589.909L394.559 607.499L388.548 587.254L388.936 565.451C388.441 552.03 385.554 538.87 382.64 525.802L381.071 518.36C378.964 508.176 376.853 497.976 372.727 488.381C369.864 481.279 366.433 474.422 362.939 467.603C362.788 467.395 362.654 467.169 362.52 466.943L361.771 466.341C360.551 465.367 359.327 464.391 358.304 463.206C355.985 460.41 353.259 457.977 350.216 455.99L346.797 453.935C341.413 450.671 335.984 447.381 330.016 445.375L317.147 441.22L313.479 439.946C310.974 439.101 308.407 438.443 305.846 437.788L296.365 434.968C293.057 433.693 289.837 432.171 286.83 430.293C286.478 430.469 286.113 430.609 285.756 430.687C283.645 431.304 281.481 431.838 279.299 432.11C272.529 432.889 265.421 433.222 258.994 430.557C255.329 429.056 251.932 426.926 248.599 424.792C243.583 421.606 238.678 418.146 234.788 413.611C225.045 403.137 220.388 389.333 216.129 375.968L214.55 370.62C211.801 361.267 209.045 351.89 204.893 343.044L204.635 342.47C204.077 341.195 203.514 339.918 203.181 338.571C202.732 335.806 204.608 334.891 206.936 336.444C208.674 337.387 210.326 338.468 211.985 339.548L217.017 342.635C220.851 344.207 224.956 344.734 229.062 345.261L238.27 346.911L240.444 347.463C245.322 348.693 250.265 349.94 254.715 352.286C260.599 355.845 266.925 359.707 269.863 366.198C275.12 377.836 277.601 390.491 279.203 403.086L280.211 409.353L283.121 424.634C283.16 424.636 283.197 424.63 283.239 424.628C283.282 424.625 283.39 424.613 283.462 424.641C283.679 424.746 283.815 424.933 283.951 425.12C284.087 425.306 284.248 425.521 284.499 425.625C286.85 427.104 289.378 428.321 291.932 429.41C296.41 431.381 301.134 432.562 305.857 433.743L318.219 437.415L326.672 440.479L334.223 443.191C337.651 444.61 340.888 446.431 344.09 448.287L345.261 448.97L355.884 455.853L351.841 450.243L344.131 440.531L330.736 422.986L321.854 408.241L318.515 402.457C312.121 392.519 306.935 381.861 303.02 370.714L295.683 347.347L295.404 345.788L295.301 345.168L294.943 344.651L294.437 343.92L290.222 337.293L285.315 329.638C283.206 326.557 280.844 323.538 277.679 321.475C272.468 317.467 266.597 316.36 260.255 315.602C255.61 314.906 251.033 313.823 246.607 312.233L245.044 311.702C240.859 310.292 236.64 308.869 232.814 306.627C225.337 301.803 219.657 294.242 216.596 285.945C211.767 273.122 212.584 263.823 215.341 250.74L216.777 244.276C217.864 239.684 218.956 235.081 219.132 230.354C219.158 229.919 219.149 229.483 219.106 229.049C219.01 227.643 218.899 226.1 220.644 226.163C221.173 226.184 221.533 226.629 221.765 227.33C223.703 229.017 225.825 230.482 228.09 231.697L229.804 232.471C235.719 235.143 241.668 237.828 246.835 241.818C250.504 244.415 254.168 247.091 257.021 250.609C259.211 253.386 261.398 256.262 262.854 259.5C265.446 265.892 267.176 272.598 267.998 279.44C268.493 282.772 268.733 286.145 268.974 289.518C269.386 295.28 269.796 301.047 271.468 306.598C272.605 309.942 273.804 313.369 275.803 316.313L276.09 316.695C276.329 317.022 276.567 317.348 276.894 317.591C276.957 317.634 276.995 317.697 277.026 317.762C284.159 321.995 287.944 328.111 292.42 335.341L292.667 335.733L293.82 337.526L294.537 338.643L294.267 333.983L294.131 331.439L292.6 302.119L292.311 292.741L292.117 278.671L292.136 278.25L291.761 277.385L287.568 267.684L282.238 255.633C279.671 250.106 276.388 244.976 273.041 239.896C269.694 234.817 266.024 229.876 261.66 225.621C258.767 222.829 255.16 220.97 251.61 219.163L251.388 219.055C249.136 217.924 246.855 216.782 244.378 216.251C238.91 215.045 233.166 215.49 227.732 216.655C224.642 217.396 221.62 218.406 218.601 219.412L208.567 222.384L198.093 224.076L195.369 224.454C189.448 225.101 183.464 224.53 177.562 223.959C170.976 223.505 164.806 220.747 159.598 216.768C156.346 214.411 153.17 211.922 150.442 208.962L137.27 195.618C135.803 194.13 134.448 192.537 133.214 190.852L133.207 190.841C132.8 190.302 132.283 189.625 132.734 188.961C132.988 188.58 133.406 188.383 133.86 188.314C134.146 187.912 134.653 187.644 135.278 187.769L135.575 187.819C137.764 188.191 139.98 188.566 142.205 188.594C146.827 188.568 150.971 186.295 154.933 184.125L155.625 183.748C161.779 180.197 168.434 177.435 175.393 175.895C180.474 175.283 185.654 175.168 190.778 175.175C198.5 175.305 205.934 177.645 213.152 180.219C222.072 183.235 230.388 187.78 237.909 193.432C242.444 196.827 246.667 200.636 250.797 204.499C252.602 206.324 253.986 208.501 255.357 210.657L255.426 210.771C257.275 213.446 258.939 216.244 260.407 219.144C261.047 220.276 261.687 221.409 262.496 222.436C262.563 222.509 262.572 222.609 262.612 222.693C268.555 227.745 273.021 234.381 277.376 240.859L278.934 243.17C283.786 250.172 286.9 258.034 290.01 265.894L292.413 271.88L292.685 245.012L292.687 243.777C293.364 232.127 291.721 220.53 289.055 209.192C284.692 190.844 279.325 172.403 269.658 156.051L263.152 146.001C262.768 145.435 262.34 144.897 261.909 144.365L261.733 144.142C261.221 144.103 260.731 143.894 260.469 143.446C260.438 143.394 260.422 143.351 260.408 143.316C260.394 143.281 260.369 143.219 260.267 143.208C257.53 142.822 254.763 142.839 252.002 142.859L248.939 142.86C241.17 142.825 233.326 142.59 225.677 141.078C222.987 140.559 220.355 139.766 217.825 138.712C215.537 137.77 213.518 136.34 211.508 134.917L209.095 133.254C204.22 130.142 200.514 125.625 197.267 120.901C188.55 108.616 184.613 93.7076 181.408 79.1958L181.125 77.9724L179.528 70.1688C179.409 69.6346 179.341 69.0614 179.632 68.568C180.769 67.0095 183.101 67.8156 184.937 68.4498L186.236 68.8624L187.866 69.4184L195.344 71.8246C199.001 72.9164 202.756 73.5922 206.512 74.268L216.176 76.2889C221.557 77.6804 226.665 79.9073 231.542 82.5605C234.602 84.0812 237.474 85.9547 240.098 88.1423C246.926 93.6103 253.102 99.9718 257.364 107.666C262.422 115.542 265.193 124.821 264.495 134.196C264.559 136.853 264.058 139.434 263.515 142.017C269.015 148.576 273.708 155.817 277.681 163.391C286.201 180.134 291.06 198.492 294.611 216.85C296.525 226.241 296.91 235.829 296.64 245.377L296.681 248.919L296.76 260.35C298.84 257.546 300.512 254.427 302.063 251.318C306.298 241.554 310.365 231.624 312.966 221.288C314.02 216.4 314.468 211.412 314.732 206.426L315.047 200.753C315.356 195.913 315.665 191.061 315.221 186.233L314.746 183.312L314.476 181.785C314.432 181.326 314.357 180.871 314.255 180.421L314.074 179.432L313.81 179.091L313.212 178.367L309.195 173.874C303.813 169.105 298.969 163.709 295.068 157.655L293.246 154.604C291.232 151.253 289.212 147.899 287.725 144.292L287.055 142.379C285.425 137.717 283.781 133.02 283.198 128.105C281.694 115.986 282.826 103.701 285.828 91.9084L294.85 62.401L296.529 57.9681L299.608 49.4205C299.702 49.2584 299.688 49.0819 299.675 48.9055C299.667 48.7791 299.653 48.6499 299.684 48.5259C299.795 47.9349 300.31 47.4892 300.9 47.4178C301.774 47.3351 302.161 48.085 302.51 48.7593L302.68 49.0739L302.936 49.5116L304.344 51.7767C304.636 52.2014 304.948 52.6117 305.28 53.006L306.253 54.29C306.755 55.1676 307.128 56.1055 307.501 57.0434L308.714 59.7422C309.265 60.8981 310.049 61.9111 310.827 62.921L311.675 64.0452L313.329 66.3305L318.136 72.7524C320.588 75.6398 322.442 78.939 324.162 82.2955L326.869 87.3564L331.164 95.9204C332.892 100.929 334.183 106.131 335.034 111.357C335.511 117.924 334.977 124.523 333.45 130.924L328.681 147.713L324.652 157.907L322.064 164.232L318.235 175.791C318.114 176.153 318.015 176.595 317.911 177.069C317.76 177.752 317.596 178.494 317.331 179.105L317.976 181.813L318.705 184.902C319.608 189.522 319.38 194.246 319.152 198.935L319.001 202.529L318.906 204.324L317.602 219.346C316.774 224.5 315.224 229.507 313.424 234.397C309.656 244.302 305.58 254.354 298.786 262.614C298.268 263.287 297.659 263.874 297.049 264.461L296.723 264.779L296.458 273.182C296.046 280.77 296.217 288.358 296.872 295.928L297.74 313.325L298.529 324.525L298.954 329.315L299.132 333.429C299.283 337.473 299.436 341.525 300.237 345.513L301.881 351.358C302.069 348.791 302.397 346.237 302.864 343.707C305.649 326.67 316.43 312.386 327.541 299.71L327.789 299.422L332.261 293.893C332.407 293.734 332.522 293.558 332.631 293.371L332.613 292.861C332.534 289.912 331.853 287.033 331.17 284.167L330.691 282.088C329.86 278.13 328.601 274.27 327.341 270.409C325.418 264.518 323.495 258.64 323.113 252.437C322.018 239.352 324.568 231.357 329.144 219.372L330.138 216.711L333.424 208.837L339.213 199.173L340.075 197.834C344.694 190.642 349.846 182.622 357.104 178.007C358.282 177.256 357.531 183.014 357.503 183.133C356.308 187.562 356.463 192.48 358.285 196.726C359.47 199.004 360.497 201.366 361.182 203.841L363.701 212.265L368.408 229.514C370.206 240.513 369.424 251.758 367.038 262.589C366.137 268.903 363.988 275.158 359.982 280.185C356.225 284.58 351.22 287.653 346.194 290.397L339.287 294.512L337.439 295.647C337.123 295.809 336.806 296.017 336.478 296.233C335.746 296.716 334.984 297.214 334.159 297.177C332.826 299.332 330.838 301.743 329.343 303.547L327.742 305.533C318.602 316.355 309.25 328 306.145 342.143C304.995 347.22 304.052 352.456 304.901 357.66L305.495 361.196L305.561 361.539L306.155 363.056L307.278 365.933L313.847 381.786C316.308 387.448 319.57 392.674 322.834 397.908L328.394 407.169C331.758 413.062 335.598 418.648 339.638 424.087C338.317 420.731 337.222 417.29 336.538 413.735C335.575 408.668 335.525 403.486 335.622 398.356L335.723 396.855C336.126 391.253 336.522 385.64 335.444 380.068C335.007 376.567 333.876 373.247 332.747 369.921L330.48 362.292C328.323 350.192 330.115 337.73 335.593 326.745C341.399 315.708 349.36 305.947 359.008 298.038L359.024 298.047Z" fill="#FFD5D6"/>
</svg>
