<svg width="23" height="23" viewBox="0 0 23 23" fill="none" xmlns="http://www.w3.org/2000/svg">
<g clip-path="url(#clip0_328_71)">
<path d="M0.26351 12.136C0.263779 12.1362 0.264004 12.1365 0.264319 12.1368L4.95883 16.8087C5.31053 17.1587 5.87937 17.1574 6.22945 16.8056C6.57948 16.4539 6.57813 15.8851 6.22644 15.5351L3.07454 12.3984L22.1016 12.3984C22.5978 12.3984 23 11.9962 23 11.5C23 11.0038 22.5978 10.6016 22.1016 10.6016L3.07459 10.6016L6.2264 7.46494C6.57809 7.11491 6.57944 6.54606 6.22941 6.19437C5.87933 5.84259 5.31044 5.84137 4.95879 6.19132L0.264273 10.8632C0.264004 10.8635 0.263779 10.8638 0.263465 10.864C-0.0884089 11.2152 -0.0872855 11.7859 0.26351 12.136Z" fill="#CCCCCC"/>
</g>
<defs>
<clipPath id="clip0_328_71">
<rect width="23" height="23" fill="white" transform="translate(23 23) rotate(-180)"/>
</clipPath>
</defs>
</svg>
