<svg width="46" height="46" viewBox="0 0 46 46" fill="none" xmlns="http://www.w3.org/2000/svg">
<g clip-path="url(#clip0_328_208)">
<path d="M38.2437 24.0884C39.9811 23.3622 41.5459 22.1333 42.7297 20.6774C44.4456 18.567 45.3906 15.9073 45.3906 13.1883C45.3906 10.8146 41.7671 10.8685 41.7579 13.2214C41.7421 17.2311 38.7048 20.7565 34.7331 21.3461C33.2209 21.571 30.9276 21.2499 31.2131 19.2828C32.7992 18.604 33.9135 17.0282 33.9135 15.1967V13.2601C33.9135 10.8107 31.9208 8.81812 29.4639 8.81812C27.0146 8.81812 25.0218 10.8108 25.0218 13.2601V15.1967C25.0218 16.9427 26.0349 18.4561 27.5037 19.1816C27.6531 21.156 26.0727 21.6035 24.2899 21.3594C22.1679 21.0692 20.2645 19.9739 18.9306 18.2753C18.3996 17.5991 17.3537 18.4205 17.8847 19.0966C18.7411 20.187 19.8003 21.0628 20.9931 21.6853L20.6182 22.5824C19.3225 21.9164 18.1629 20.9832 17.232 19.8384C15.7082 17.9643 14.8692 15.6026 14.8692 13.1882C14.8692 12.5281 15.8398 12.5848 15.8424 13.2265C15.8462 14.2045 15.9977 15.1696 16.2927 16.0948C16.5539 16.9137 17.8208 16.5099 17.5596 15.6908C17.3058 14.8948 17.1755 14.0638 17.1722 13.2214C17.1629 10.8685 13.5394 10.8148 13.5394 13.1883C13.5394 15.9073 14.4844 18.567 16.2003 20.6774C17.8913 22.7571 20.2533 24.2185 22.851 24.7923C22.9592 24.8403 23.0123 24.908 23.0103 24.9955L23.0365 35.4911C21.5634 36.0828 17.1763 36.7357 17.6748 33.929C19.2609 33.2503 20.3752 31.6745 20.3752 29.843V27.9064C20.3752 25.457 18.3825 23.4644 15.9256 23.4644C13.4763 23.4644 11.4835 25.4571 11.4835 27.9064V29.843C11.4835 31.589 12.4966 33.1024 13.9654 33.8278C14.1149 35.8023 12.5345 36.2498 10.7516 36.0056C6.7098 35.4529 3.64971 31.9542 3.63367 27.8676C3.62445 25.5147 0.000976562 25.4608 0.000976562 27.8345C0.000976562 30.5379 0.95629 33.2259 2.66186 35.3235C4.3529 37.4033 6.71486 38.8647 9.31262 39.4385C9.40651 39.4592 9.47202 39.5389 9.47193 39.64V40.4266C9.47193 41.2863 10.8017 41.2863 10.8017 40.4266V39.6334C10.8024 38.9106 10.3079 38.2964 9.59932 38.14C7.29349 37.6306 5.19607 36.3324 3.69351 34.4846C2.67454 33.2314 1.96364 31.7596 1.60318 30.2002L2.57011 30.0676C3.47862 33.8206 6.62115 36.7829 10.5713 37.3232C10.7419 37.3466 11.7852 37.4728 12.8553 37.2516C12.9875 38.8318 14.314 40.0773 15.9265 40.0773C17.5482 40.0773 18.8805 38.8175 18.9998 37.2246C19.9733 37.4213 20.9417 37.3745 21.39 37.3078C23.6289 36.9754 25.6878 35.8464 27.1872 34.1289C28.2111 32.9559 28.9249 31.5597 29.2835 30.0676L30.25 30.2001C29.8895 31.7595 29.1786 33.2314 28.1597 34.4846C26.6571 36.3325 24.5598 37.6306 22.2539 38.14C21.5453 38.2964 21.0509 38.9105 21.0516 39.64V44.0603H10.8015V43.617C10.8015 42.7574 9.47175 42.7574 9.47175 43.617V44.7252C9.47175 45.0925 9.76945 45.3901 10.1366 45.3901H21.7163C22.0835 45.3901 22.3812 45.0925 22.3812 44.7252V39.6322C22.5266 39.3769 22.7634 39.2668 23.092 39.3019V44.7253C23.092 45.0925 23.3897 45.3901 23.7569 45.3901H35.282C35.6492 45.3901 35.9469 45.0925 35.9469 44.7253V35.9072C35.9469 35.907 35.9469 35.9067 35.9469 35.9064C35.9469 35.9062 35.9469 35.9059 35.9469 35.9055L35.9196 24.9861C35.9193 24.724 37.8976 24.233 38.2437 24.0884ZM1.3859 28.8877C1.35053 28.5386 1.33049 28.1872 1.33049 27.8345C1.33049 27.1745 2.30114 27.2309 2.30362 27.8728C2.30477 28.17 2.31985 28.4645 2.34821 28.7558L1.3859 28.8877ZM15.933 24.7942C17.4209 24.7942 18.6675 25.844 18.973 27.2415H12.8854C13.191 25.844 14.4386 24.7942 15.933 24.7942ZM12.8131 29.843V28.5713H19.0453V29.843C19.0453 31.559 17.6491 32.9552 15.933 32.9552H15.9254C14.2093 32.9553 12.8131 31.5591 12.8131 29.843ZM17.6796 36.9921C17.6796 39.4058 13.9519 39.1209 14.1733 36.7428C15.0899 36.1567 15.295 35.2516 15.295 34.2395C15.6519 34.2905 15.9895 34.2981 16.3449 34.2652C16.3449 35.345 16.696 36.2236 17.6796 36.7633V36.9921ZM31.218 22.117C31.3976 24.6789 27.5889 24.6342 27.7117 22.0976C28.5645 21.5524 28.9111 20.5755 28.8334 19.5935C29.1903 19.6445 29.5279 19.6521 29.8832 19.6192C29.7986 20.6714 30.2832 21.6045 31.218 22.117ZM29.4714 10.1481C30.9593 10.1481 32.2059 11.1979 32.5114 12.5954H26.4238C26.7294 11.1979 27.977 10.1481 29.4714 10.1481ZM26.3515 15.1969V13.9252H32.5837V15.1969C32.5837 16.913 31.1875 18.3092 29.4714 18.3092H29.4638C27.7477 18.3093 26.3515 16.9131 26.3515 15.1969ZM29.5043 28.7556C29.5326 28.4631 29.5481 28.1686 29.5492 27.8727C29.5517 27.2309 30.5224 27.1744 30.5224 27.8344C30.5224 28.1871 30.5024 28.5384 30.467 28.8875L29.5043 28.7556ZM34.6171 44.0603H30.3113V40.9811H30.6573C31.0245 40.9811 31.3222 40.6835 31.3222 40.3162C31.3222 39.949 31.0245 39.6514 30.6573 39.6514H28.6356C28.2684 39.6514 27.9707 39.949 27.9707 40.3162C27.9707 40.6835 28.2684 40.9811 28.6356 40.9811H28.9815V44.0603H24.4217V38.8522C25.7419 38.3158 26.9625 37.5417 28.0161 36.572H34.617V44.0603H34.6171ZM35.7923 23.4938C35.0837 23.6503 34.5892 24.2644 34.5898 24.9955L34.6154 35.2422H29.2559C30.9213 33.1566 31.8522 30.5034 31.8522 27.8344C31.8522 25.4607 28.2287 25.5146 28.2194 27.8675C28.2084 30.6589 26.7225 33.3223 24.3644 34.8115L24.3399 24.9873C24.3406 24.2644 23.8461 23.6502 23.1375 23.4938C22.6953 23.3961 22.261 23.2688 21.8368 23.1148L22.2123 22.2163C23.5338 22.6843 25.0075 22.8918 26.3936 22.6052C26.5258 24.1854 27.8522 25.4311 29.4648 25.4311C31.0873 25.4311 32.4202 24.17 32.5383 22.5759C33.9546 22.8611 35.3813 22.6913 36.736 22.2053L37.113 23.1072C36.6825 23.2646 36.2415 23.3946 35.7923 23.4938ZM40.7255 19.4827C42.2397 17.7482 43.0786 15.5264 43.0877 13.2267C43.0902 12.5849 44.0608 12.5284 44.0608 13.1884C44.0608 15.6028 43.2216 17.9645 41.698 19.8385C40.7717 20.9777 39.6187 21.907 38.3308 22.5724L37.9537 21.67C38.9949 21.1227 39.9379 20.3849 40.7255 19.4827Z" fill="#ED5C60"/>
<path d="M12.1471 21.7558C13.0028 21.7558 13.0042 20.426 12.1471 20.426C11.2915 20.426 11.2901 21.7558 12.1471 21.7558Z" fill="#ED5C60"/>
<path d="M7.81514 29.5175C8.67081 29.5175 8.67223 28.1877 7.81514 28.1877C6.95947 28.1877 6.95805 29.5175 7.81514 29.5175Z" fill="#ED5C60"/>
<path d="M0.642221 12.7775C1.49789 12.7775 1.49931 11.4478 0.642221 11.4478C-0.213364 11.4478 -0.214783 12.7775 0.642221 12.7775Z" fill="#ED5C60"/>
<path d="M6.35218 6.47945C7.20786 6.47945 7.20927 5.14966 6.35218 5.14966C5.4966 5.14966 5.49518 6.47945 6.35218 6.47945Z" fill="#ED5C60"/>
<path d="M18.566 9.12178C19.4217 9.12178 19.4231 7.79199 18.566 7.79199C17.7105 7.79199 17.709 9.12178 18.566 9.12178Z" fill="#ED5C60"/>
<path d="M21.3337 15.3366C22.1894 15.3366 22.1908 14.0068 21.3337 14.0068C20.478 14.0068 20.4766 15.3366 21.3337 15.3366Z" fill="#ED5C60"/>
<path d="M21.8415 1.3354C22.6971 1.3354 22.6986 0.00561523 21.8415 0.00561523C20.9858 0.00561523 20.9845 1.3354 21.8415 1.3354Z" fill="#ED5C60"/>
<path d="M42.9587 7.14424C43.8144 7.14424 43.8158 5.81445 42.9587 5.81445C42.103 5.81445 42.1016 7.14424 42.9587 7.14424Z" fill="#ED5C60"/>
<path d="M37.2623 3.81953C38.118 3.81953 38.1194 2.48975 37.2623 2.48975C36.4068 2.48975 36.4053 3.81953 37.2623 3.81953Z" fill="#ED5C60"/>
<path d="M32.4772 7.14424C33.3329 7.14424 33.3343 5.81445 32.4772 5.81445C31.6216 5.81445 31.6202 7.14424 32.4772 7.14424Z" fill="#ED5C60"/>
<path d="M42.6276 26.1621C41.772 26.1621 41.7705 27.4919 42.6276 27.4919C43.4833 27.4919 43.4847 26.1621 42.6276 26.1621Z" fill="#ED5C60"/>
<path d="M39.655 39.5391C38.7993 39.5391 38.7979 40.8688 39.655 40.8688C40.5107 40.8688 40.5121 39.5391 39.655 39.5391Z" fill="#ED5C60"/>
<path d="M42.6276 36.8999C43.4833 36.8999 43.4847 35.5701 42.6276 35.5701C41.772 35.5701 41.7705 36.8999 42.6276 36.8999Z" fill="#ED5C60"/>
<path d="M6.35225 44.0603C5.49657 44.0603 5.49516 45.3901 6.35225 45.3901C7.20792 45.3901 7.20934 44.0603 6.35225 44.0603Z" fill="#ED5C60"/>
<path d="M1.7758 19.3145C1.51614 19.5742 1.51614 19.9952 1.7758 20.2548L4.30648 22.7855C4.43626 22.9153 4.60648 22.9802 4.7766 22.9802C4.94672 22.9802 5.11694 22.9153 5.24672 22.7855C5.50639 22.5257 5.50639 22.1048 5.24672 21.8452L2.71614 19.3145C2.45648 19.055 2.03547 19.055 1.7758 19.3145Z" fill="#ED5C60"/>
<path d="M0.665558 2.97087C0.768129 2.97087 0.872296 2.94693 0.969813 2.89675L4.15058 1.25615C4.47691 1.0878 4.60501 0.686735 4.43675 0.360405C4.26839 0.0340752 3.86742 -0.0938503 3.541 0.0742348L0.360239 1.71484C0.0339092 1.88319 -0.0941936 2.28425 0.0740688 2.61058C0.192154 2.83948 0.424601 2.97087 0.665558 2.97087Z" fill="#ED5C60"/>
<path d="M7.35887 15.7645C7.41003 15.7764 7.46109 15.7822 7.51135 15.7822C7.81304 15.7822 8.08618 15.5754 8.15807 15.2691L8.97589 11.7848C9.05976 11.4273 8.83795 11.0694 8.4805 10.9855C8.1227 10.9017 7.76517 11.1234 7.68121 11.4809L6.86339 14.9652C6.77962 15.3226 7.00143 15.6805 7.35887 15.7645Z" fill="#ED5C60"/>
<path d="M41.8887 32.1325C42.1231 31.8499 42.0842 31.4308 41.8016 31.1962L39.0475 28.9106C38.7649 28.6761 38.3457 28.7151 38.1113 28.9976C37.8768 29.2802 37.9157 29.6994 38.1983 29.9339L40.9524 32.2195C41.0765 32.3225 41.227 32.3728 41.3767 32.3728C41.5676 32.3728 41.7572 32.2909 41.8887 32.1325Z" fill="#ED5C60"/>
<path d="M3.37507 39.2827C3.09244 39.0482 2.6732 39.087 2.43881 39.3698L0.153258 42.124C-0.0812275 42.4066 -0.0423091 42.8257 0.240315 43.0602C0.364428 43.1632 0.51496 43.2135 0.664606 43.2135C0.855563 43.2135 1.0451 43.1317 1.17657 42.9732L3.46212 40.2191C3.69661 39.9364 3.6576 39.5172 3.37507 39.2827Z" fill="#ED5C60"/>
<path d="M45.1495 41.4595C44.8669 41.2249 44.4476 41.2638 44.2132 41.5465L41.9277 44.3006C41.6932 44.5832 41.7321 45.0023 42.0147 45.2369C42.1388 45.3399 42.2894 45.3901 42.439 45.3901C42.63 45.3901 42.8195 45.3082 42.951 45.1497L45.2365 42.3956C45.471 42.1131 45.4321 41.6941 45.1495 41.4595Z" fill="#ED5C60"/>
<path d="M11.1842 2.98663L14.4162 4.52378C14.5084 4.56757 14.6055 4.5884 14.7013 4.5884C14.9499 4.5884 15.1883 4.44833 15.3022 4.20897C15.4599 3.87732 15.3189 3.4806 14.9873 3.32289L11.7553 1.78574C11.4235 1.62812 11.027 1.76908 10.8693 2.10064C10.7116 2.4322 10.8526 2.82892 11.1842 2.98663Z" fill="#ED5C60"/>
<path d="M24.4042 7.72847C24.5715 7.72847 24.7389 7.6657 24.8682 7.53973L27.4314 5.04195C27.6944 4.78565 27.6999 4.36473 27.4436 4.10179C27.1872 3.83867 26.7662 3.83335 26.5033 4.08964L23.9401 6.58743C23.6772 6.84372 23.6717 7.26464 23.928 7.52759C24.0583 7.66136 24.2311 7.72847 24.4042 7.72847Z" fill="#ED5C60"/>
<path d="M38.8075 13.8583C38.9378 13.992 39.1107 14.0592 39.2837 14.0592C39.451 14.0592 39.6185 13.9964 39.7477 13.8704C40.0107 13.6141 40.0162 13.1932 39.7599 12.9303L37.2621 10.3671C37.0058 10.104 36.5848 10.0988 36.3219 10.355C36.059 10.6113 36.0535 11.0322 36.3098 11.2951L38.8075 13.8583Z" fill="#ED5C60"/>
<path d="M41.0858 1.32139L44.6178 1.89959C44.6542 1.90553 44.6903 1.90845 44.726 1.90845C45.0459 1.90845 45.328 1.67689 45.3813 1.35092C45.4406 0.988504 45.195 0.64666 44.8327 0.587352L41.3007 0.00916026C40.9382 -0.0505029 40.5965 0.195596 40.5372 0.55783C40.4778 0.920153 40.7234 1.26209 41.0858 1.32139Z" fill="#ED5C60"/>
</g>
<defs>
<clipPath id="clip0_328_208">
<rect width="45.3901" height="45.3901" fill="white"/>
</clipPath>
</defs>
</svg>
