<?xml version="1.0" encoding="UTF-8"?>
<svg id="Layer_1" xmlns="http://www.w3.org/2000/svg" version="1.1" xmlns:xlink="http://www.w3.org/1999/xlink" viewBox="0 0 23 23">
  <!-- Generator: Adobe Illustrator 29.6.1, SVG Export Plug-In . SVG Version: 2.1.1 Build 9)  -->
  <defs>
    <style>
      .st0 {
        fill: none;
      }

      .st1 {
        fill: #ccc;
      }

      .st2 {
        clip-path: url(#clippath);
      }
    </style>
    <clipPath id="clippath">
      <rect class="st0" x="0" width="23" height="23"/>
    </clipPath>
  </defs>
  <g class="st2">
    <path class="st1" d="M22.7,10.9s0,0,0,0l-4.7-4.7c-.4-.4-.9-.3-1.3,0-.4.4-.3.9,0,1.3l3.2,3.1H.9C.4,10.6,0,11,0,11.5s.4.9.9.9h19l-3.2,3.1c-.4.4-.4.9,0,1.3.4.4.9.4,1.3,0l4.7-4.7s0,0,0,0c.4-.4.4-.9,0-1.3Z"/>
  </g>
</svg>