<svg width="18" height="9" viewBox="0 0 18 9" fill="none" xmlns="http://www.w3.org/2000/svg">
<path d="M0.197632 4.6547C0.197834 4.65491 0.198002 4.65514 0.198239 4.65534L3.71913 8.15925C3.9829 8.42174 4.40953 8.42076 4.67209 8.15696C4.93461 7.89319 4.9336 7.46656 4.66983 7.20403L2.30591 4.85156L16.5762 4.85156C16.9483 4.85156 17.25 4.54989 17.25 4.17774C17.25 3.80558 16.9483 3.50391 16.5762 3.50391L2.30594 3.50391L4.6698 1.15144C4.93357 0.888914 4.93458 0.46228 4.67205 0.19851C4.4095 -0.0653269 3.98283 -0.0662367 3.71909 0.196219L0.198204 3.70013C0.198002 3.70033 0.197834 3.70056 0.197598 3.70077C-0.0663067 3.96416 -0.0654637 4.39218 0.197632 4.6547Z" fill="#CCCCCC"/>
</svg>
