<svg width="23" height="12" viewBox="0 0 23 12" fill="none" xmlns="http://www.w3.org/2000/svg">
<path d="M22.7365 6.20627C22.7362 6.20654 22.736 6.20686 22.7357 6.20713L18.0412 10.879C17.6895 11.229 17.1206 11.2277 16.7705 10.8759C16.4205 10.5243 16.4219 9.95541 16.7736 9.60538L19.9255 6.46875H0.898438C0.402227 6.46875 0 6.06652 0 5.57031C0 5.07411 0.402227 4.67188 0.898438 4.67188H19.9254L16.7736 1.53525C16.4219 1.18522 16.4206 0.616374 16.7706 0.264679C17.1207 -0.0871034 17.6896 -0.0883166 18.0413 0.261626L22.7357 4.9335C22.736 4.93377 22.7362 4.93408 22.7365 4.93435C23.0884 5.28555 23.0873 5.85624 22.7365 6.20627Z" fill="#CCCCCC"/>
</svg>
