<svg width="23" height="12" viewBox="0 0 23 12" fill="none" xmlns="http://www.w3.org/2000/svg">
<path d="M0.26351 6.20627C0.263779 6.20654 0.264004 6.20686 0.264319 6.20713L4.95883 10.879C5.31053 11.229 5.87937 11.2277 6.22945 10.8759C6.57948 10.5243 6.57813 9.95541 6.22644 9.60538L3.07454 6.46875L22.1016 6.46875C22.5978 6.46875 23 6.06652 23 5.57031C23 5.07411 22.5978 4.67188 22.1016 4.67188L3.07459 4.67188L6.2264 1.53525C6.57809 1.18522 6.57944 0.616374 6.22941 0.264679C5.87933 -0.0871034 5.31044 -0.0883166 4.95879 0.261626L0.264273 4.9335C0.264004 4.93377 0.263779 4.93408 0.263465 4.93435C-0.0884089 5.28555 -0.0872855 5.85624 0.26351 6.20627Z" fill="#CCCCCC"/>
</svg>
